<svg width="54" height="54" viewBox="0 0 54 54" fill="none" xmlns="http://www.w3.org/2000/svg">
<mask id="path-1-inside-1_697_3522" fill="white">
<path d="M0 9.30853C0 4.16757 4.16757 0 9.30853 0H44.6915C49.8324 0 54 4.16757 54 9.30853V44.6915C54 49.8324 49.8324 54 44.6915 54H9.30853C4.16757 54 0 49.8324 0 44.6915V9.30853Z"/>
</mask>
<path d="M0 9.30853C0 4.16757 4.16757 0 9.30853 0H44.6915C49.8324 0 54 4.16757 54 9.30853V44.6915C54 49.8324 49.8324 54 44.6915 54H9.30853C4.16757 54 0 49.8324 0 44.6915V9.30853Z" fill="white"/>
<path d="M9.30853 0V0.918605H44.6915V0V-0.918605H9.30853V0ZM54 9.30853H53.0814V44.6915H54H54.9186V9.30853H54ZM44.6915 54V53.0814H9.30853V54V54.9186H44.6915V54ZM0 44.6915H0.918605V9.30853H0H-0.918605V44.6915H0ZM9.30853 54V53.0814C4.6749 53.0814 0.918605 49.3251 0.918605 44.6915H0H-0.918605C-0.918605 50.3398 3.66024 54.9186 9.30853 54.9186V54ZM54 44.6915H53.0814C53.0814 49.3251 49.3251 53.0814 44.6915 53.0814V54V54.9186C50.3398 54.9186 54.9186 50.3398 54.9186 44.6915H54ZM44.6915 0V0.918605C49.3251 0.918605 53.0814 4.6749 53.0814 9.30853H54H54.9186C54.9186 3.66024 50.3398 -0.918605 44.6915 -0.918605V0ZM9.30853 0V-0.918605C3.66024 -0.918605 -0.918605 3.66024 -0.918605 9.30853H0H0.918605C0.918605 4.6749 4.6749 0.918605 9.30853 0.918605V0Z" fill="black" fill-opacity="0.08" mask="url(#path-1-inside-1_697_3522)"/>
<g clip-path="url(#clip0_697_3522)">
<path d="M36.9126 26.3334H33.2859V17.0801C33.2859 16.5496 33.0752 16.0409 32.7001 15.6659C32.3251 15.2908 31.8164 15.0801 31.2859 15.0801H22.7126C22.1822 15.0801 21.6735 15.2908 21.2984 15.6659C20.9233 16.0409 20.7126 16.5496 20.7126 17.0801V26.3334H17.0859C16.5555 26.3334 16.0468 26.5441 15.6717 26.9192C15.2967 27.2943 15.0859 27.803 15.0859 28.3334V36.9201C15.0859 37.4505 15.2967 37.9592 15.6717 38.3343C16.0468 38.7094 16.5555 38.9201 17.0859 38.9201H25.6659C26.16 38.921 26.6363 38.7353 26.9993 38.4001C27.3644 38.7319 27.8392 38.9171 28.3326 38.9201H36.9193C37.4497 38.9201 37.9584 38.7094 38.3335 38.3343C38.7086 37.9592 38.9193 37.4505 38.9193 36.9201V28.3334C38.9193 28.0702 38.8673 27.8096 38.7664 27.5665C38.6655 27.3234 38.5176 27.1026 38.3311 26.9168C38.1447 26.731 37.9234 26.5838 37.68 26.4837C37.4366 26.3836 37.1758 26.3325 36.9126 26.3334ZM26.3326 36.9201C26.3326 37.0969 26.2624 37.2665 26.1373 37.3915C26.0123 37.5165 25.8427 37.5867 25.6659 37.5867H17.0859C16.9091 37.5867 16.7396 37.5165 16.6145 37.3915C16.4895 37.2665 16.4193 37.0969 16.4193 36.9201V28.3334C16.4193 28.1566 16.4895 27.987 16.6145 27.862C16.7396 27.737 16.9091 27.6667 17.0859 27.6667H19.7126V30.3334C19.7126 30.5102 19.7828 30.6798 19.9079 30.8048C20.0329 30.9298 20.2025 31.0001 20.3793 31.0001H22.3793C22.555 30.9967 22.7226 30.9253 22.8469 30.801C22.9712 30.6767 23.0425 30.5092 23.0459 30.3334V27.6667H26.3326V36.9201ZM22.0459 26.3334V17.0801C22.0459 16.9033 22.1162 16.7337 22.2412 16.6087C22.3662 16.4836 22.5358 16.4134 22.7126 16.4134H25.3259V19.0801C25.3259 19.2569 25.3962 19.4265 25.5212 19.5515C25.6462 19.6765 25.8158 19.7467 25.9926 19.7467H27.9926C28.1694 19.7467 28.339 19.6765 28.464 19.5515C28.589 19.4265 28.6593 19.2569 28.6593 19.0801V16.4134H31.2859C31.4627 16.4134 31.6323 16.4836 31.7573 16.6087C31.8824 16.7337 31.9526 16.9033 31.9526 17.0801V26.3334H22.0459ZM37.5793 36.9201C37.5759 37.0958 37.5045 37.2634 37.3802 37.3877C37.2559 37.512 37.0883 37.5833 36.9126 37.5867H28.3326C28.1569 37.5833 27.9893 37.512 27.865 37.3877C27.7407 37.2634 27.6694 37.0958 27.6659 36.9201V27.6667H30.9593V30.3334C30.9593 30.5102 31.0295 30.6798 31.1545 30.8048C31.2796 30.9298 31.4491 31.0001 31.6259 31.0001H33.6259C33.8027 31.0001 33.9723 30.9298 34.0973 30.8048C34.2224 30.6798 34.2926 30.5102 34.2926 30.3334V27.6667H36.9193C37.0961 27.6667 37.2657 27.737 37.3907 27.862C37.5157 27.987 37.5859 28.1566 37.5859 28.3334L37.5793 36.9201Z" fill="#901C27"/>
<path d="M22.0459 26.3334V17.0801C22.0459 16.9033 22.1162 16.7337 22.2412 16.6087C22.3662 16.4836 22.5358 16.4134 22.7126 16.4134H25.3259V19.0801C25.3259 19.2569 25.3962 19.4265 25.5212 19.5515C25.6462 19.6765 25.8158 19.7467 25.9926 19.7467H27.9926C28.1694 19.7467 28.339 19.6765 28.464 19.5515C28.589 19.4265 28.6593 19.2569 28.6593 19.0801V16.4134H31.2859C31.4627 16.4134 31.6323 16.4836 31.7573 16.6087C31.8824 16.7337 31.9526 16.9033 31.9526 17.0801V26.3334H22.0459Z" fill="#FFEDEE"/>
<path d="M26.3326 36.9201C26.3326 37.0969 26.2624 37.2665 26.1373 37.3915C26.0123 37.5165 25.8427 37.5867 25.6659 37.5867H17.0859C16.9091 37.5867 16.7396 37.5165 16.6145 37.3915C16.4895 37.2665 16.4193 37.0969 16.4193 36.9201V28.3334C16.4193 28.1566 16.4895 27.987 16.6145 27.862C16.7396 27.737 16.9091 27.6667 17.0859 27.6667H19.7126V30.3334C19.7126 30.5102 19.7828 30.6798 19.9079 30.8048C20.0329 30.9298 20.2025 31.0001 20.3793 31.0001H22.3793C22.555 30.9967 22.7226 30.9253 22.8469 30.801C22.9712 30.6767 23.0425 30.5092 23.0459 30.3334V27.6667H26.3326V36.9201Z" fill="#FFEDEE"/>
<path d="M37.5793 36.9201C37.5759 37.0958 37.5045 37.2634 37.3802 37.3877C37.2559 37.512 37.0883 37.5833 36.9126 37.5867H28.3326C28.1569 37.5833 27.9893 37.512 27.865 37.3877C27.7407 37.2634 27.6694 37.0958 27.6659 36.9201V27.6667H30.9593V30.3334C30.9593 30.5102 31.0295 30.6798 31.1545 30.8048C31.2796 30.9298 31.4491 31.0001 31.6259 31.0001H33.6259C33.8027 31.0001 33.9723 30.9298 34.0973 30.8048C34.2224 30.6798 34.2926 30.5102 34.2926 30.3334V27.6667H36.9193C37.0961 27.6667 37.2657 27.737 37.3907 27.862C37.5157 27.987 37.5859 28.1566 37.5859 28.3334L37.5793 36.9201Z" fill="#FFEDEE"/>
</g>
<defs>
<clipPath id="clip0_697_3522">
<rect width="32" height="32" fill="white" transform="translate(11 11)"/>
</clipPath>
</defs>
</svg>
