<svg width="23" height="23" viewBox="0 0 23 23" fill="none" xmlns="http://www.w3.org/2000/svg">
<g clip-path="url(#clip0_608_8770)">
<path d="M2.95117 11.8967H5.27645C5.33995 11.8946 5.40319 11.9059 5.46203 11.9298C5.52087 11.9538 5.57398 11.9899 5.61788 12.0359C5.66179 12.0818 5.6955 12.1365 5.7168 12.1963C5.73811 12.2562 5.74653 12.3199 5.74151 12.3832V21.1356C5.74669 21.1989 5.73837 21.2626 5.71712 21.3225C5.69586 21.3823 5.66214 21.437 5.61819 21.4829C5.57424 21.5288 5.52105 21.5648 5.46214 21.5887C5.40324 21.6125 5.33995 21.6235 5.27645 21.6211H2.95117" fill="#FFEDEE"/>
<path d="M2.95117 11.8967H5.27645C5.33995 11.8946 5.40319 11.9059 5.46203 11.9298C5.52087 11.9538 5.57398 11.9899 5.61788 12.0359C5.66179 12.0818 5.6955 12.1365 5.7168 12.1963C5.73811 12.2562 5.74653 12.3199 5.74151 12.3832V21.1356C5.74669 21.1989 5.73837 21.2626 5.71712 21.3225C5.69586 21.3823 5.66214 21.437 5.61819 21.4829C5.57424 21.5288 5.52105 21.5648 5.46214 21.5887C5.40324 21.6125 5.33995 21.6235 5.27645 21.6211H2.95117" stroke="#901C27" stroke-width="1.41369" stroke-linecap="round" stroke-linejoin="round"/>
<path d="M9.60113 9.84497L7.81346 12.0707C7.69605 12.217 7.54841 12.3363 7.38065 12.4202C7.2129 12.5042 7.02898 12.5509 6.84149 12.5572H5.74023M5.74023 19.0959C7.7344 20.6073 9.5537 21.6221 10.7284 21.6221H16.563C17.2699 21.6221 17.7145 21.5718 18.0214 20.6501C18.4902 18.2969 18.8148 15.9177 18.9943 13.5254C18.9943 13.0399 18.5079 12.5535 17.5359 12.5535H12.0185M9.81692 11.3527L8.3771 1.2777C8.36685 1.20573 8.37217 1.13239 8.3927 1.06265C8.41324 0.992913 8.4485 0.928395 8.49612 0.873459C8.54374 0.818524 8.60259 0.774452 8.66871 0.744223C8.73483 0.713995 8.80667 0.698315 8.87937 0.698242H15.9054" fill="#FFEDEE"/>
<path d="M9.60113 9.84497L7.81346 12.0707C7.69605 12.217 7.54841 12.3363 7.38065 12.4202C7.2129 12.5042 7.02898 12.5509 6.84149 12.5572H5.74023M5.74023 19.0959C7.7344 20.6073 9.5537 21.6221 10.7284 21.6221H16.563C17.2699 21.6221 17.7145 21.5718 18.0214 20.6501C18.4902 18.2969 18.8148 15.9177 18.9943 13.5254C18.9943 13.0399 18.5079 12.5535 17.5359 12.5535H12.0185M9.81692 11.3527L8.3771 1.2777C8.36685 1.20573 8.37217 1.13239 8.3927 1.06265C8.41324 0.992913 8.4485 0.928395 8.49612 0.873459C8.54374 0.818524 8.60259 0.774452 8.66871 0.744223C8.73483 0.713995 8.80667 0.698315 8.87937 0.698242H15.9054" stroke="#901C27" stroke-width="1.41369" stroke-linecap="round" stroke-linejoin="round"/>
<path d="M12.8722 12.5567L12.0202 4.03782C12.0133 3.97274 12.0201 3.90693 12.0404 3.84468C12.0606 3.78244 12.0938 3.72517 12.1377 3.67662C12.1816 3.62807 12.2352 3.58933 12.2951 3.56294C12.355 3.53655 12.4198 3.5231 12.4853 3.52347H18.903C18.9706 3.52266 19.0376 3.5366 19.0992 3.56432C19.1609 3.59203 19.2158 3.63285 19.26 3.68394C19.3043 3.73502 19.3369 3.79515 19.3556 3.86012C19.3742 3.92509 19.3785 3.99335 19.3681 4.06015L18.0845 12.6172" fill="#FFEDEE"/>
<path d="M12.8722 12.5567L12.0202 4.03782C12.0133 3.97274 12.0201 3.90693 12.0404 3.84468C12.0606 3.78244 12.0938 3.72517 12.1377 3.67662C12.1816 3.62807 12.2352 3.58933 12.2951 3.56294C12.355 3.53655 12.4198 3.5231 12.4853 3.52347H18.903C18.9706 3.52266 19.0376 3.5366 19.0992 3.56432C19.1609 3.59203 19.2158 3.63285 19.26 3.68394C19.3043 3.73502 19.3369 3.79515 19.3556 3.86012C19.3742 3.92509 19.3785 3.99335 19.3681 4.06015L18.0845 12.6172" stroke="#901C27" stroke-width="1.41369" stroke-linecap="round" stroke-linejoin="round"/>
<path d="M15.5304 8.71614C15.4379 8.71614 15.3492 8.67939 15.2838 8.61398C15.2184 8.54857 15.1816 8.45985 15.1816 8.36735C15.1816 8.27484 15.2184 8.18612 15.2838 8.12071C15.3492 8.0553 15.4379 8.01855 15.5304 8.01855M15.5304 8.71614C15.6229 8.71614 15.7117 8.67939 15.7771 8.61398C15.8425 8.54857 15.8792 8.45985 15.8792 8.36735C15.8792 8.27484 15.8425 8.18612 15.7771 8.12071C15.7117 8.0553 15.6229 8.01855 15.5304 8.01855" fill="#FFEDEE"/>
<path d="M15.5304 8.71614C15.4379 8.71614 15.3492 8.67939 15.2838 8.61398C15.2184 8.54857 15.1816 8.45985 15.1816 8.36735C15.1816 8.27484 15.2184 8.18612 15.2838 8.12071C15.3492 8.0553 15.4379 8.01855 15.5304 8.01855C15.6229 8.01855 15.7117 8.0553 15.7771 8.12071C15.8425 8.18612 15.8792 8.27484 15.8792 8.36735C15.8792 8.45985 15.8425 8.54857 15.7771 8.61398C15.7117 8.67939 15.6229 8.71614 15.5304 8.71614Z" stroke="#901C27" stroke-width="1.41369"/>
</g>
<defs>
<clipPath id="clip0_608_8770">
<rect width="22.3227" height="22.3227" fill="white"/>
</clipPath>
</defs>
</svg>
