<svg width="54" height="54" viewBox="0 0 54 54" fill="none" xmlns="http://www.w3.org/2000/svg">
<mask id="path-1-inside-1_697_3531" fill="white">
<path d="M0 9.30853C0 4.16757 4.16757 0 9.30853 0H44.6915C49.8324 0 54 4.16757 54 9.30853V44.6915C54 49.8324 49.8324 54 44.6915 54H9.30853C4.16757 54 0 49.8324 0 44.6915V9.30853Z"/>
</mask>
<path d="M0 9.30853C0 4.16757 4.16757 0 9.30853 0H44.6915C49.8324 0 54 4.16757 54 9.30853V44.6915C54 49.8324 49.8324 54 44.6915 54H9.30853C4.16757 54 0 49.8324 0 44.6915V9.30853Z" fill="white"/>
<path d="M9.30853 0V0.918605H44.6915V0V-0.918605H9.30853V0ZM54 9.30853H53.0814V44.6915H54H54.9186V9.30853H54ZM44.6915 54V53.0814H9.30853V54V54.9186H44.6915V54ZM0 44.6915H0.918605V9.30853H0H-0.918605V44.6915H0ZM9.30853 54V53.0814C4.6749 53.0814 0.918605 49.3251 0.918605 44.6915H0H-0.918605C-0.918605 50.3398 3.66024 54.9186 9.30853 54.9186V54ZM54 44.6915H53.0814C53.0814 49.3251 49.3251 53.0814 44.6915 53.0814V54V54.9186C50.3398 54.9186 54.9186 50.3398 54.9186 44.6915H54ZM44.6915 0V0.918605C49.3251 0.918605 53.0814 4.6749 53.0814 9.30853H54H54.9186C54.9186 3.66024 50.3398 -0.918605 44.6915 -0.918605V0ZM9.30853 0V-0.918605C3.66024 -0.918605 -0.918605 3.66024 -0.918605 9.30853H0H0.918605C0.918605 4.6749 4.6749 0.918605 9.30853 0.918605V0Z" fill="black" fill-opacity="0.08" mask="url(#path-1-inside-1_697_3531)"/>
<g clip-path="url(#clip0_697_3531)">
<path d="M32.5992 31.8004C32.387 31.8004 32.1836 31.8847 32.0335 32.0347C31.8835 32.1847 31.7992 32.3882 31.7992 32.6004C31.7992 32.8126 31.8835 33.016 32.0335 33.1661C32.1836 33.3161 32.387 33.4004 32.5992 33.4004H35.7992C36.0114 33.4004 36.2149 33.3161 36.3649 33.1661C36.5149 33.016 36.5992 32.8126 36.5992 32.6004C36.5992 32.3882 36.5149 32.1847 36.3649 32.0347C36.2149 31.8847 36.0114 31.8004 35.7992 31.8004H32.5992ZM14.1992 21.8004C14.1992 20.6334 14.6628 19.5143 15.4879 18.6891C16.3131 17.864 17.4323 17.4004 18.5992 17.4004H35.3992C36.5662 17.4004 37.6853 17.864 38.5105 18.6891C39.3356 19.5143 39.7992 20.6334 39.7992 21.8004V32.2004C39.7992 33.3673 39.3356 34.4865 38.5105 35.3117C37.6853 36.1368 36.5662 36.6004 35.3992 36.6004H18.5992C17.4323 36.6004 16.3131 36.1368 15.4879 35.3117C14.6628 34.4865 14.1992 33.3673 14.1992 32.2004V21.8004ZM18.5992 19.0004C17.8566 19.0004 17.1444 19.2954 16.6193 19.8205C16.0942 20.3456 15.7992 21.0578 15.7992 21.8004V23.8004H38.1992V21.8004C38.1992 21.0578 37.9042 20.3456 37.3791 19.8205C36.854 19.2954 36.1418 19.0004 35.3992 19.0004H18.5992ZM38.1992 25.4004H15.7992V32.2004C15.7992 33.746 17.0536 35.0004 18.5992 35.0004H35.3992C36.1418 35.0004 36.854 34.7054 37.3791 34.1803C37.9042 33.6552 38.1992 32.943 38.1992 32.2004V25.4004Z" fill="#901C27"/>
<path fill-rule="evenodd" clip-rule="evenodd" d="M38.1992 25.4004H15.7992V32.2004C15.7992 33.746 17.0536 35.0004 18.5992 35.0004H35.3992C36.1418 35.0004 36.854 34.7054 37.3791 34.1803C37.9042 33.6552 38.1992 32.943 38.1992 32.2004V25.4004ZM32.0335 32.0347C32.1836 31.8847 32.387 31.8004 32.5992 31.8004H35.7992C36.0114 31.8004 36.2149 31.8847 36.3649 32.0347C36.5149 32.1847 36.5992 32.3882 36.5992 32.6004C36.5992 32.8126 36.5149 33.016 36.3649 33.1661C36.2149 33.3161 36.0114 33.4004 35.7992 33.4004H32.5992C32.387 33.4004 32.1836 33.3161 32.0335 33.1661C31.8835 33.016 31.7992 32.8126 31.7992 32.6004C31.7992 32.3882 31.8835 32.1847 32.0335 32.0347Z" fill="#FFEDEE"/>
</g>
<defs>
<clipPath id="clip0_697_3531">
<rect width="32" height="32" fill="white" transform="translate(11 11)"/>
</clipPath>
</defs>
</svg>
