<svg width="19" height="20" viewBox="0 0 19 20" fill="none" xmlns="http://www.w3.org/2000/svg">
<path d="M17.4971 17.6743C17.5193 17.8746 17.4988 18.0774 17.4371 18.2693C17.3753 18.4612 17.2736 18.6378 17.1386 18.7876C17.0037 18.9374 16.8386 19.0569 16.6542 19.1383C16.4697 19.2197 16.2702 19.2612 16.0686 19.26H2.12572C1.92413 19.2612 1.72456 19.2197 1.54014 19.1383C1.35571 19.0569 1.19061 18.9374 1.05567 18.7876C0.920741 18.6378 0.819035 18.4612 0.757242 18.2693C0.69545 18.0774 0.67497 17.8746 0.697149 17.6743L1.95429 6.40283H16.24L17.4971 17.6743Z" fill="#FFEDEE"/>
<path d="M5.52572 6.40325V4.26039C5.52572 3.31319 5.90199 2.40478 6.57177 1.73501C7.24154 1.06524 8.14995 0.688965 9.09715 0.688965C10.0444 0.688965 10.9528 1.06524 11.6225 1.73501C12.2923 2.40478 12.6686 3.31319 12.6686 4.26039V6.40325M17.4971 17.6747C17.5193 17.8751 17.4988 18.0778 17.4371 18.2697C17.3753 18.4616 17.2736 18.6383 17.1386 18.788C17.0037 18.9378 16.8386 19.0573 16.6542 19.1387C16.4697 19.2202 16.2702 19.2616 16.0686 19.2604H2.12572C1.92413 19.2616 1.72456 19.2202 1.54014 19.1387C1.35571 19.0573 1.19061 18.9378 1.05567 18.788C0.920741 18.6383 0.819035 18.4616 0.757242 18.2697C0.69545 18.0778 0.67497 17.8751 0.697149 17.6747L1.95429 6.40325H16.24L17.4971 17.6747Z" stroke="#901C27" stroke-width="1.37791" stroke-linecap="round" stroke-linejoin="round"/>
</svg>
