<svg width="39" height="39" viewBox="0 0 39 39" fill="none" xmlns="http://www.w3.org/2000/svg">
<rect width="38.641" height="38.641" rx="9.32663" fill="#6F0014" fill-opacity="0.1"/>
<path d="M22.0385 17.6774C22.0385 18.3023 21.7902 18.9016 21.3484 19.3435C20.9065 19.7854 20.3072 20.0336 19.6823 20.0336C19.0574 20.0336 18.4581 19.7854 18.0163 19.3435C17.5744 18.9016 17.3262 18.3023 17.3262 17.6774C17.3262 17.0526 17.5744 16.4533 18.0163 16.0114C18.4581 15.5695 19.0574 15.3213 19.6823 15.3213C20.3072 15.3213 20.9065 15.5695 21.3484 16.0114C21.7902 16.4533 22.0385 17.0526 22.0385 17.6774Z" fill="#FFEDEE" stroke="#901C27" stroke-width="1.41369" stroke-linecap="round" stroke-linejoin="round"/>
<path d="M23.4523 11.0801C25.7896 11.0801 27.4012 11.442 28.29 11.7172C28.8017 11.8765 29.1071 12.3609 29.1071 12.8962V22.0899C29.1071 23.1408 27.9498 23.9315 26.9168 23.7374C26.0309 23.5696 24.8764 23.4358 23.4523 23.4358C18.9756 23.4358 17.9012 25.1369 11.337 23.6902C11.029 23.6204 10.7542 23.4476 10.558 23.2002C10.3617 22.9529 10.2558 22.646 10.2578 22.3303V12.8905C10.2578 11.9707 11.1249 11.3006 12.0278 11.4797C17.9832 12.6606 19.1368 11.0801 23.4523 11.0801Z" fill="#FFEDEE" stroke="#901C27" stroke-width="1.41369" stroke-linecap="round" stroke-linejoin="round"/>
<path d="M10.2578 14.8494C12.0966 14.8494 13.7496 13.3462 13.9607 11.7902L10.2578 14.8494ZM25.8085 11.5508C25.8085 13.4734 27.4719 15.2914 29.1071 15.2914L25.8085 11.5508ZM29.1071 20.5042C27.3164 20.5042 25.5823 21.7388 25.4334 23.4239L29.1071 20.5042ZM14.0277 23.799C14.0277 22.7992 13.6305 21.8403 12.9235 21.1333C12.2165 20.4264 11.2576 20.0292 10.2578 20.0292M26.2797 26.3786C25.3447 26.2287 24.3992 26.1553 23.4523 26.159C19.4054 26.159 18.1387 27.7234 13.0852 26.8215" fill="#FFEDEE"/>
<path d="M10.2578 14.8494C12.0966 14.8494 13.7496 13.3462 13.9607 11.7902M25.8085 11.5508C25.8085 13.4734 27.4719 15.2914 29.1071 15.2914M29.1071 20.5042C27.3164 20.5042 25.5823 21.7388 25.4334 23.4239M14.0277 23.799C14.0277 22.7992 13.6305 21.8403 12.9235 21.1333C12.2165 20.4264 11.2576 20.0292 10.2578 20.0292M26.2797 26.3786C25.3447 26.2287 24.3992 26.1553 23.4523 26.159C19.4054 26.159 18.1387 27.7234 13.0852 26.8215" stroke="#901C27" stroke-width="1.41369" stroke-linecap="round" stroke-linejoin="round"/>
</svg>
