<svg width="18" height="18" viewBox="0 0 18 18" fill="none" xmlns="http://www.w3.org/2000/svg">
<path d="M1.5 7.87501C1.5 7.29751 1.50975 6.73276 1.53 6.18751C1.59225 4.40776 1.62375 3.51751 2.3475 2.78776C3.07125 2.05876 3.987 2.01976 5.817 1.94101C6.87741 1.89649 7.93865 1.87448 9 1.87501C10.11 1.87501 11.1788 1.89751 12.183 1.94101C14.013 2.01976 14.928 2.05876 15.6525 2.78851C16.3763 3.51751 16.4077 4.40776 16.47 6.18751C16.5096 7.31216 16.5096 8.43786 16.47 9.56251C16.4077 11.3423 16.3763 12.2325 15.6525 12.9623C14.9288 13.6913 14.013 13.7303 12.183 13.809C11.632 13.8325 11.0632 13.85 10.4767 13.8615C9.92175 13.872 9.6435 13.8765 9.399 13.9703C9.1545 14.064 8.949 14.2388 8.538 14.5913L6.90375 15.9938C6.82421 16.0619 6.72679 16.1058 6.62305 16.1203C6.51931 16.1347 6.4136 16.1191 6.31846 16.0753C6.22332 16.0315 6.14275 15.9613 6.0863 15.8731C6.02985 15.7848 5.9999 15.6823 6 15.5775V13.8165L5.817 13.809C3.987 13.7303 3.072 13.6913 2.3475 12.9615C1.62375 12.2325 1.59225 11.3423 1.53 9.56251C1.51011 9.00023 1.50011 8.43764 1.5 7.87501Z" fill="#FFEDEE" stroke="#901C27" stroke-width="1.5" stroke-linecap="round" stroke-linejoin="round"/>
<path d="M9.0945 7.875H9H9.0945ZM6.093 7.875H6H6.093ZM12.0938 7.875H12H12.0938ZM9.1875 7.875C9.1875 7.92473 9.16775 7.97242 9.13258 8.00758C9.09742 8.04275 9.04973 8.0625 9 8.0625C8.95027 8.0625 8.90258 8.04275 8.86742 8.00758C8.83225 7.97242 8.8125 7.92473 8.8125 7.875C8.8125 7.82527 8.83225 7.77758 8.86742 7.74242C8.90258 7.70725 8.95027 7.6875 9 7.6875C9.04973 7.6875 9.09742 7.70725 9.13258 7.74242C9.16775 7.77758 9.1875 7.82527 9.1875 7.875ZM6.1875 7.875C6.1875 7.92473 6.16775 7.97242 6.13258 8.00758C6.09742 8.04275 6.04973 8.0625 6 8.0625C5.95027 8.0625 5.90258 8.04275 5.86742 8.00758C5.83225 7.97242 5.8125 7.92473 5.8125 7.875C5.8125 7.82527 5.83225 7.77758 5.86742 7.74242C5.90258 7.70725 5.95027 7.6875 6 7.6875C6.04973 7.6875 6.09742 7.70725 6.13258 7.74242C6.16775 7.77758 6.1875 7.82527 6.1875 7.875ZM12.1875 7.875C12.1875 7.92473 12.1677 7.97242 12.1326 8.00758C12.0974 8.04275 12.0497 8.0625 12 8.0625C11.9503 8.0625 11.9026 8.04275 11.8674 8.00758C11.8323 7.97242 11.8125 7.92473 11.8125 7.875C11.8125 7.82527 11.8323 7.77758 11.8674 7.74242C11.9026 7.70725 11.9503 7.6875 12 7.6875C12.0497 7.6875 12.0974 7.70725 12.1326 7.74242C12.1677 7.77758 12.1875 7.82527 12.1875 7.875Z" fill="#FFEDEE"/>
<path d="M9.0945 7.875H9M6.093 7.875H6M12.0938 7.875H12M9.1875 7.875C9.1875 7.92473 9.16775 7.97242 9.13258 8.00758C9.09742 8.04275 9.04973 8.0625 9 8.0625C8.95027 8.0625 8.90258 8.04275 8.86742 8.00758C8.83225 7.97242 8.8125 7.92473 8.8125 7.875C8.8125 7.82527 8.83225 7.77758 8.86742 7.74242C8.90258 7.70725 8.95027 7.6875 9 7.6875C9.04973 7.6875 9.09742 7.70725 9.13258 7.74242C9.16775 7.77758 9.1875 7.82527 9.1875 7.875ZM6.1875 7.875C6.1875 7.92473 6.16775 7.97242 6.13258 8.00758C6.09742 8.04275 6.04973 8.0625 6 8.0625C5.95027 8.0625 5.90258 8.04275 5.86742 8.00758C5.83225 7.97242 5.8125 7.92473 5.8125 7.875C5.8125 7.82527 5.83225 7.77758 5.86742 7.74242C5.90258 7.70725 5.95027 7.6875 6 7.6875C6.04973 7.6875 6.09742 7.70725 6.13258 7.74242C6.16775 7.77758 6.1875 7.82527 6.1875 7.875ZM12.1875 7.875C12.1875 7.92473 12.1677 7.97242 12.1326 8.00758C12.0974 8.04275 12.0497 8.0625 12 8.0625C11.9503 8.0625 11.9026 8.04275 11.8674 8.00758C11.8323 7.97242 11.8125 7.92473 11.8125 7.875C11.8125 7.82527 11.8323 7.77758 11.8674 7.74242C11.9026 7.70725 11.9503 7.6875 12 7.6875C12.0497 7.6875 12.0974 7.70725 12.1326 7.74242C12.1677 7.77758 12.1875 7.82527 12.1875 7.875Z" stroke="#901C27" stroke-width="1.5" stroke-linecap="round" stroke-linejoin="round"/>
</svg>
