<svg width="24" height="24" viewBox="0 0 24 24" fill="none" xmlns="http://www.w3.org/2000/svg">
<path d="M12.0794 2.25001C7.28535 2.25001 3.34535 5.91301 2.96135 10.583H2.00035C1.85167 10.5829 1.70631 10.6271 1.58276 10.7098C1.4592 10.7925 1.36302 10.9101 1.30644 11.0476C1.24985 11.1851 1.23541 11.3363 1.26495 11.482C1.2945 11.6277 1.36669 11.7614 1.47235 11.866L3.15235 13.532C3.29281 13.6712 3.48258 13.7494 3.68035 13.7494C3.87813 13.7494 4.0679 13.6712 4.20835 13.532L5.88835 11.866C5.99402 11.7614 6.06621 11.6277 6.09575 11.482C6.1253 11.3363 6.11086 11.1851 6.05427 11.0476C5.99769 10.9101 5.90151 10.7925 5.77795 10.7098C5.6544 10.6271 5.50904 10.5829 5.36035 10.583H4.46735C4.84735 6.75201 8.10535 3.75001 12.0794 3.75001C13.3896 3.74748 14.6785 4.08107 15.823 4.71888C16.9675 5.35669 17.9293 6.27741 18.6164 7.39301C18.6666 7.47958 18.7337 7.55521 18.8137 7.61544C18.8936 7.67566 18.9849 7.71928 19.0819 7.7437C19.179 7.76812 19.28 7.77286 19.379 7.75764C19.4779 7.74242 19.5728 7.70755 19.658 7.65507C19.7433 7.6026 19.8172 7.53359 19.8753 7.45211C19.9335 7.37063 19.9748 7.27834 19.9967 7.18066C20.0186 7.08298 20.0208 6.9819 20.003 6.88338C19.9853 6.78486 19.948 6.69089 19.8934 6.60701C19.0722 5.27342 17.9227 4.17267 16.5549 3.40988C15.1871 2.64709 13.6455 2.24775 12.0794 2.25001Z" fill="#901C27"/>
<path opacity="0.5" d="M20.8417 10.4673C20.7013 10.3287 20.512 10.251 20.3147 10.251C20.1174 10.251 19.928 10.3287 19.7877 10.4673L18.1007 12.1333C17.9947 12.2378 17.9222 12.3715 17.8925 12.5173C17.8627 12.6631 17.877 12.8144 17.9335 12.9521C17.99 13.0898 18.0862 13.2075 18.2098 13.2904C18.3334 13.3732 18.4789 13.4174 18.6277 13.4173H19.5267C19.1457 17.2473 15.8757 20.2503 11.8827 20.2503C10.5684 20.2537 9.27506 19.9206 8.1259 19.2828C6.97674 18.6449 6.00998 17.7235 5.31767 16.6063C5.26695 16.5205 5.19961 16.4456 5.11959 16.386C5.03957 16.3265 4.94848 16.2835 4.85165 16.2596C4.75482 16.2357 4.65419 16.2313 4.55566 16.2468C4.45712 16.2622 4.36266 16.2972 4.2778 16.3496C4.19294 16.402 4.11938 16.4708 4.06143 16.552C4.00349 16.6332 3.96232 16.7251 3.94033 16.8224C3.91834 16.9197 3.91598 17.0204 3.93338 17.1186C3.95078 17.2168 3.98759 17.3105 4.04167 17.3943C4.86825 18.729 6.02261 19.8299 7.3949 20.5924C8.7672 21.3549 10.3118 21.7535 11.8817 21.7503C16.6907 21.7503 20.6477 18.0903 21.0327 13.4173H22.0007C22.1495 13.4174 22.2949 13.3732 22.4186 13.2904C22.5422 13.2075 22.6384 13.0898 22.6949 12.9521C22.7514 12.8144 22.7656 12.6631 22.7359 12.5173C22.7061 12.3715 22.6336 12.2378 22.5277 12.1333L20.8417 10.4673Z" fill="#901C27"/>
</svg>
