<svg width="54" height="54" viewBox="0 0 54 54" fill="none" xmlns="http://www.w3.org/2000/svg">
<mask id="path-1-inside-1_697_3550" fill="white">
<path d="M0 9.30853C0 4.16757 4.16757 0 9.30853 0H44.6915C49.8324 0 54 4.16757 54 9.30853V44.6915C54 49.8324 49.8324 54 44.6915 54H9.30853C4.16757 54 0 49.8324 0 44.6915V9.30853Z"/>
</mask>
<path d="M0 9.30853C0 4.16757 4.16757 0 9.30853 0H44.6915C49.8324 0 54 4.16757 54 9.30853V44.6915C54 49.8324 49.8324 54 44.6915 54H9.30853C4.16757 54 0 49.8324 0 44.6915V9.30853Z" fill="white"/>
<path d="M9.30853 0V0.918605H44.6915V0V-0.918605H9.30853V0ZM54 9.30853H53.0814V44.6915H54H54.9186V9.30853H54ZM44.6915 54V53.0814H9.30853V54V54.9186H44.6915V54ZM0 44.6915H0.918605V9.30853H0H-0.918605V44.6915H0ZM9.30853 54V53.0814C4.6749 53.0814 0.918605 49.3251 0.918605 44.6915H0H-0.918605C-0.918605 50.3398 3.66024 54.9186 9.30853 54.9186V54ZM54 44.6915H53.0814C53.0814 49.3251 49.3251 53.0814 44.6915 53.0814V54V54.9186C50.3398 54.9186 54.9186 50.3398 54.9186 44.6915H54ZM44.6915 0V0.918605C49.3251 0.918605 53.0814 4.6749 53.0814 9.30853H54H54.9186C54.9186 3.66024 50.3398 -0.918605 44.6915 -0.918605V0ZM9.30853 0V-0.918605C3.66024 -0.918605 -0.918605 3.66024 -0.918605 9.30853H0H0.918605C0.918605 4.6749 4.6749 0.918605 9.30853 0.918605V0Z" fill="black" fill-opacity="0.08" mask="url(#path-1-inside-1_697_3550)"/>
<g clip-path="url(#clip0_697_3550)">
<path d="M33.6663 21.4393L35.929 23.474C37.985 25.326 39.013 26.2513 39.013 27.4393C39.013 28.626 37.985 29.5527 35.9277 31.4033L33.6663 33.4393M29.649 17.666L26.9997 27.5527L24.3503 37.4393M20.333 21.4393L18.0717 23.474C16.013 25.326 14.9863 26.2527 14.9863 27.4393C14.9863 28.626 16.0143 29.5527 18.0717 31.4033L20.333 33.4393" stroke="#901C27" stroke-width="1.5" stroke-linecap="round"/>
</g>
<defs>
<clipPath id="clip0_697_3550">
<rect width="32" height="32" fill="white" transform="translate(11 11)"/>
</clipPath>
</defs>
</svg>
