<svg width="20" height="16" viewBox="0 0 20 16" fill="none" xmlns="http://www.w3.org/2000/svg">
<path fill-rule="evenodd" clip-rule="evenodd" d="M18.542 8.97559V12.1645C18.542 13.5464 15.2106 15.3535 11.1011 15.3535C6.99156 15.3535 3.66016 13.5464 3.66016 12.1645V9.50708" fill="#FFEDEE"/>
<path d="M18.542 8.97559V12.1645C18.542 13.5464 15.2106 15.3535 11.1011 15.3535C6.99156 15.3535 3.66016 13.5464 3.66016 12.1645V9.50708" stroke="#901C27" stroke-width="0.942463" stroke-linecap="round" stroke-linejoin="round"/>
<path fill-rule="evenodd" clip-rule="evenodd" d="M3.97461 9.78204C4.89409 11.0024 7.73758 12.1472 11.103 12.1472C15.2125 12.1472 18.5439 10.44 18.5439 8.97311C18.5439 8.1493 17.4947 7.24682 15.8482 6.61328" fill="#FFEDEE"/>
<path d="M3.97461 9.78204C4.89409 11.0024 7.73758 12.1472 11.103 12.1472C15.2125 12.1472 18.5439 10.44 18.5439 8.97311C18.5439 8.1493 17.4947 7.24682 15.8482 6.61328" stroke="#901C27" stroke-width="0.942463" stroke-linecap="round" stroke-linejoin="round"/>
<path fill-rule="evenodd" clip-rule="evenodd" d="M15.3525 3.66113V6.85009C15.3525 8.23197 12.0211 10.0391 7.91161 10.0391C3.8021 10.0391 0.470703 8.23197 0.470703 6.85009V3.66113" fill="#FFEDEE"/>
<path d="M15.3525 3.66113V6.85009C15.3525 8.23197 12.0211 10.0391 7.91161 10.0391C3.8021 10.0391 0.470703 8.23197 0.470703 6.85009V3.66113" stroke="#901C27" stroke-width="0.942463" stroke-linecap="round" stroke-linejoin="round"/>
<path fill-rule="evenodd" clip-rule="evenodd" d="M7.91161 6.83259C12.0211 6.83259 15.3525 5.12543 15.3525 3.65851C15.3525 2.19159 12.0211 0.47168 7.91161 0.47168C3.8021 0.47168 0.470703 2.19053 0.470703 3.65851C0.470703 5.12543 3.8021 6.83259 7.91161 6.83259Z" fill="#FFEDEE" stroke="#901C27" stroke-width="0.942463" stroke-linecap="round" stroke-linejoin="round"/>
</svg>
