<svg width="40" height="40" viewBox="0 0 40 40" fill="none" xmlns="http://www.w3.org/2000/svg">
<rect width="40" height="40" rx="9.89602" fill="#E6D6D7"/>
<path fill-rule="evenodd" clip-rule="evenodd" d="M28.5049 20.0635V23.2524C28.5049 24.6343 25.1735 26.4414 21.064 26.4414C16.9544 26.4414 13.623 24.6343 13.623 23.2524V20.595" fill="#FFEDEE"/>
<path d="M28.5049 20.0635V23.2524C28.5049 24.6343 25.1735 26.4414 21.064 26.4414C16.9544 26.4414 13.623 24.6343 13.623 23.2524V20.595" stroke="#901C27" stroke-width="0.942463" stroke-linecap="round" stroke-linejoin="round"/>
<path fill-rule="evenodd" clip-rule="evenodd" d="M13.9375 20.8699C14.857 22.0902 17.7005 23.2351 21.0659 23.2351C25.1754 23.2351 28.5068 21.5279 28.5068 20.061C28.5068 19.2372 27.4576 18.3347 25.8111 17.7012" fill="#FFEDEE"/>
<path d="M13.9375 20.8699C14.857 22.0902 17.7005 23.2351 21.0659 23.2351C25.1754 23.2351 28.5068 21.5279 28.5068 20.061C28.5068 19.2372 27.4576 18.3347 25.8111 17.7012" stroke="#901C27" stroke-width="0.942463" stroke-linecap="round" stroke-linejoin="round"/>
<path fill-rule="evenodd" clip-rule="evenodd" d="M25.3154 14.749V17.938C25.3154 19.3199 21.984 21.1269 17.8745 21.1269C13.765 21.1269 10.4336 19.3199 10.4336 17.938V14.749" fill="#FFEDEE"/>
<path d="M25.3154 14.749V17.938C25.3154 19.3199 21.984 21.1269 17.8745 21.1269C13.765 21.1269 10.4336 19.3199 10.4336 17.938V14.749" stroke="#901C27" stroke-width="0.942463" stroke-linecap="round" stroke-linejoin="round"/>
<path fill-rule="evenodd" clip-rule="evenodd" d="M17.8745 17.9205C21.984 17.9205 25.3154 16.2133 25.3154 14.7464C25.3154 13.2795 21.984 11.5596 17.8745 11.5596C13.765 11.5596 10.4336 13.2784 10.4336 14.7464C10.4336 16.2133 13.765 17.9205 17.8745 17.9205Z" fill="#FFEDEE" stroke="#901C27" stroke-width="0.942463" stroke-linecap="round" stroke-linejoin="round"/>
</svg>
