<svg width="13" height="15" viewBox="0 0 13 15" fill="none" xmlns="http://www.w3.org/2000/svg">
<path fill-rule="evenodd" clip-rule="evenodd" d="M8.5 5.04807e-08H5.796C4.57067 5.04807e-08 3.6 4.96705e-08 2.84067 0.102C2.05933 0.207333 1.42667 0.428667 0.927333 0.927333C0.428667 1.42667 0.207333 2.05933 0.102 2.84067C1.29143e-07 3.60067 5.04807e-08 4.57067 5.04807e-08 5.796V9.83333C-0.000119593 10.429 0.21244 11.0051 0.599398 11.4579C0.986357 11.9108 1.52228 12.2106 2.11067 12.3033C2.202 12.8127 2.37867 13.2473 2.732 13.6013C3.13333 14.0027 3.63867 14.1747 4.23867 14.256C4.81667 14.3333 5.552 14.3333 6.46333 14.3333H8.53667C9.448 14.3333 10.1833 14.3333 10.7613 14.256C11.3613 14.1747 11.8667 14.0027 12.268 13.6013C12.6693 13.2 12.8413 12.6947 12.9227 12.0947C13 11.5167 13 10.7813 13 9.87V6.46333C13 5.552 13 4.81667 12.9227 4.23867C12.8413 3.63867 12.6693 3.13333 12.268 2.732C11.914 2.37867 11.4793 2.202 10.97 2.11067C10.8772 1.52228 10.5774 0.986357 10.1246 0.599398C9.67177 0.21244 9.09565 -0.000119593 8.5 5.04807e-08ZM9.92 2.014C9.81863 1.718 9.62723 1.46111 9.37261 1.27928C9.11799 1.09746 8.81288 0.999809 8.5 1H5.83333C4.562 1 3.65933 1.00133 2.97333 1.09333C2.30333 1.18333 1.91667 1.35267 1.63467 1.63467C1.35267 1.91667 1.18333 2.30333 1.09333 2.97333C1.00133 3.65933 1 4.562 1 5.83333V9.83333C0.999809 10.1462 1.09746 10.4513 1.27928 10.7059C1.46111 10.9606 1.718 11.152 2.014 11.2533C2 10.8467 2 10.3867 2 9.87V6.46333C2 5.552 2 4.81667 2.078 4.23867C2.158 3.63867 2.33133 3.13333 2.732 2.732C3.13333 2.33067 3.63867 2.15867 4.23867 2.078C4.81667 2 5.552 2 6.46333 2H8.53667C9.05333 2 9.51333 2 9.92 2.014ZM3.43867 3.44C3.62333 3.25533 3.882 3.13533 4.372 3.06933C4.87467 3.002 5.54267 3.00067 6.49933 3.00067H8.49933C9.456 3.00067 10.1233 3.002 10.6273 3.06933C11.1167 3.13533 11.3753 3.256 11.56 3.44C11.7447 3.62467 11.8647 3.88333 11.9307 4.37333C11.998 4.876 11.9993 5.544 11.9993 6.50067V9.834C11.9993 10.7907 11.998 11.458 11.9307 11.962C11.8647 12.4513 11.744 12.71 11.56 12.8947C11.3753 13.0793 11.1167 13.1993 10.6267 13.2653C10.1233 13.3327 9.456 13.334 8.49933 13.334H6.49933C5.54267 13.334 4.87467 13.3327 4.37133 13.2653C3.882 13.1993 3.62333 13.0787 3.43867 12.8947C3.254 12.71 3.134 12.4513 3.068 11.9613C3.00067 11.458 2.99933 10.7907 2.99933 9.834V6.50067C2.99933 5.544 3.00067 4.876 3.068 4.37267C3.134 3.88333 3.25467 3.62467 3.43867 3.44Z" fill="#901C27"/>
</svg>
