<svg width="59" height="59" viewBox="0 0 59 59" fill="none" xmlns="http://www.w3.org/2000/svg">
<rect width="59" height="59" rx="8" fill="white"/>
<rect x="0.5" y="0.5" width="58" height="58" rx="7.5" stroke="black" stroke-opacity="0.1"/>
<path d="M33.6225 37.8264C34.7954 38.1666 36.0106 38.3388 37.2318 38.3379C39.1961 38.3426 41.135 37.8946 42.8982 37.0289C42.9019 36.9501 42.9037 36.8708 42.9037 36.791C42.9038 35.5781 42.5151 34.3971 41.7946 33.4214C41.0742 32.4457 40.0599 31.7266 38.9007 31.3697C37.7415 31.0128 36.4984 31.037 35.3539 31.4386C34.2094 31.8402 33.2238 32.5981 32.5417 33.601M33.6225 37.8264V37.8223C33.6225 36.2919 33.2306 34.8523 32.5417 33.601M33.6225 37.8264V37.9721C30.9768 39.5671 27.9447 40.4069 24.8555 40.4004C21.6503 40.4004 18.6515 39.5135 16.0912 37.9721L16.0898 37.8223C16.0888 35.8759 16.7356 33.9845 17.9282 32.4464C19.1208 30.9082 20.7915 29.8107 22.6768 29.327C24.5621 28.8432 26.5547 29.0007 28.3406 29.7745C30.1265 30.5484 31.6055 31.8946 32.5417 33.601M29.4975 20.291C29.4975 21.5218 29.0085 22.7021 28.1383 23.5724C27.268 24.4427 26.0876 24.9316 24.8568 24.9316C23.6261 24.9316 22.4457 24.4427 21.5754 23.5724C20.7051 22.7021 20.2162 21.5218 20.2162 20.291C20.2162 19.0602 20.7051 17.8799 21.5754 17.0096C22.4457 16.1393 23.6261 15.6504 24.8568 15.6504C26.0876 15.6504 27.268 16.1393 28.1383 17.0096C29.0085 17.8799 29.4975 19.0602 29.4975 20.291ZM40.8412 23.3848C40.8412 24.342 40.4609 25.2601 39.7841 25.937C39.1072 26.6139 38.1891 26.9941 37.2318 26.9941C36.2746 26.9941 35.3565 26.6139 34.6796 25.937C34.0027 25.2601 33.6225 24.342 33.6225 23.3848C33.6225 22.4275 34.0027 21.5094 34.6796 20.8326C35.3565 20.1557 36.2746 19.7754 37.2318 19.7754C38.1891 19.7754 39.1072 20.1557 39.7841 20.8326C40.4609 21.5094 40.8412 22.4275 40.8412 23.3848Z" fill="#FFEDEE"/>
<path d="M33.6225 37.8264C34.7954 38.1666 36.0106 38.3388 37.2318 38.3379C39.1961 38.3425 41.135 37.8946 42.8982 37.0289C42.9019 36.9501 42.9037 36.8708 42.9037 36.791C42.9038 35.5781 42.5151 34.3971 41.7946 33.4214C41.0742 32.4457 40.0599 31.7266 38.9007 31.3697C37.7415 31.0128 36.4984 31.037 35.3539 31.4386C34.2094 31.8402 33.2238 32.5981 32.5417 33.601M32.5417 33.601C31.6055 31.8946 30.1265 30.5484 28.3406 29.7745C26.5547 29.0007 24.5621 28.8432 22.6768 29.327C20.7915 29.8107 19.1208 30.9082 17.9282 32.4464C16.7356 33.9845 16.0888 35.8759 16.0898 37.8223L16.0912 37.9721C18.6515 39.5135 21.6503 40.4004 24.8555 40.4004C27.9447 40.4069 30.9768 39.5671 33.6225 37.9721V37.8264V37.8223C33.6225 36.2919 33.2306 34.8523 32.5417 33.601ZM29.4975 20.291C29.4975 21.5218 29.0085 22.7021 28.1383 23.5724C27.268 24.4427 26.0876 24.9316 24.8568 24.9316C23.6261 24.9316 22.4457 24.4427 21.5754 23.5724C20.7051 22.7021 20.2162 21.5218 20.2162 20.291C20.2162 19.0602 20.7051 17.8799 21.5754 17.0096C22.4457 16.1393 23.6261 15.6504 24.8568 15.6504C26.0876 15.6504 27.268 16.1393 28.1383 17.0096C29.0085 17.8799 29.4975 19.0602 29.4975 20.291ZM40.8412 23.3848C40.8412 24.342 40.4609 25.2601 39.7841 25.937C39.1072 26.6139 38.1891 26.9941 37.2318 26.9941C36.2746 26.9941 35.3565 26.6139 34.6796 25.937C34.0027 25.2601 33.6225 24.342 33.6225 23.3848C33.6225 22.4275 34.0027 21.5094 34.6796 20.8326C35.3565 20.1557 36.2746 19.7754 37.2318 19.7754C38.1891 19.7754 39.1072 20.1557 39.7841 20.8326C40.4609 21.5094 40.8412 22.4275 40.8412 23.3848Z" stroke="#901C27" stroke-width="2.0625" stroke-linecap="round" stroke-linejoin="round"/>
</svg>
