<svg width="32" height="32" viewBox="0 0 32 32" fill="none" xmlns="http://www.w3.org/2000/svg">
<g clip-path="url(#clip0_608_8363)">
<path d="M28.7997 15.9997H3.19974H28.7997ZM28.7997 15.9997C29.3655 15.9997 29.9082 15.775 30.3082 15.3749C30.7083 14.9748 30.9331 14.4322 30.9331 13.8664V11.7331C30.9331 11.1673 30.7083 10.6247 30.3082 10.2246C29.9082 9.8245 29.3655 9.59974 28.7997 9.59974H3.19974C2.63394 9.59974 2.09132 9.8245 1.69125 10.2246C1.29117 10.6247 1.06641 11.1673 1.06641 11.7331V13.8664C1.06641 14.4322 1.29117 14.9748 1.69125 15.3749C2.09132 15.775 2.63394 15.9997 3.19974 15.9997M28.7997 15.9997V26.6664C28.7997 27.798 28.3502 28.8832 27.5501 29.6834C26.7499 30.4836 25.6647 30.9331 24.5331 30.9331H7.46641C6.33482 30.9331 5.24957 30.4836 4.44942 29.6834C3.64926 28.8832 3.19974 27.798 3.19974 26.6664V15.9997M15.9997 9.59974V7.46641V9.59974ZM15.9997 9.59974H8.98961C8.50942 9.59974 8.03394 9.50516 7.59031 9.3214C7.14668 9.13765 6.74359 8.86831 6.40405 8.52877C5.71831 7.84303 5.33307 6.91298 5.33307 5.94321V5.33307C5.33307 4.20148 5.7826 3.11624 6.58275 2.31608C7.38291 1.51593 8.46815 1.06641 9.59974 1.06641C11.2971 1.06641 12.925 1.74069 14.1252 2.94092C15.3255 4.14116 15.9997 5.76902 15.9997 7.46641M15.9997 9.59974H23.0099C25.0301 9.59974 26.6664 7.96134 26.6664 5.94321V5.33307C26.6664 4.20148 26.2169 3.11624 25.4167 2.31608C24.6166 1.51593 23.5313 1.06641 22.3997 1.06641C20.7024 1.06641 19.0745 1.74069 17.8743 2.94092C16.674 4.14116 15.9997 5.76902 15.9997 7.46641M15.9997 9.59974V30.9331V9.59974Z" fill="#FFEDEE"/>
<path d="M28.7997 15.9997H3.19974M28.7997 15.9997C29.3655 15.9997 29.9082 15.775 30.3082 15.3749C30.7083 14.9748 30.9331 14.4322 30.9331 13.8664V11.7331C30.9331 11.1673 30.7083 10.6247 30.3082 10.2246C29.9082 9.8245 29.3655 9.59974 28.7997 9.59974H3.19974C2.63394 9.59974 2.09132 9.8245 1.69125 10.2246C1.29117 10.6247 1.06641 11.1673 1.06641 11.7331V13.8664C1.06641 14.4322 1.29117 14.9748 1.69125 15.3749C2.09132 15.775 2.63394 15.9997 3.19974 15.9997M28.7997 15.9997V26.6664C28.7997 27.798 28.3502 28.8832 27.5501 29.6834C26.7499 30.4836 25.6647 30.9331 24.5331 30.9331H7.46641C6.33482 30.9331 5.24957 30.4836 4.44942 29.6834C3.64926 28.8832 3.19974 27.798 3.19974 26.6664V15.9997M15.9997 9.59974V7.46641M15.9997 9.59974H8.98961C8.50942 9.59974 8.03394 9.50516 7.59031 9.3214C7.14668 9.13765 6.74359 8.86831 6.40405 8.52877C5.71831 7.84303 5.33307 6.91298 5.33307 5.94321V5.33307C5.33307 4.20148 5.7826 3.11624 6.58275 2.31608C7.38291 1.51593 8.46815 1.06641 9.59974 1.06641C11.2971 1.06641 12.925 1.74069 14.1252 2.94092C15.3255 4.14116 15.9997 5.76902 15.9997 7.46641M15.9997 9.59974H23.0099C25.0301 9.59974 26.6664 7.96134 26.6664 5.94321V5.33307C26.6664 4.20148 26.2169 3.11624 25.4167 2.31608C24.6166 1.51593 23.5313 1.06641 22.3997 1.06641C20.7024 1.06641 19.0745 1.74069 17.8743 2.94092C16.674 4.14116 15.9997 5.76902 15.9997 7.46641M15.9997 9.59974V30.9331" stroke="#901C27" stroke-width="1.5"/>
</g>
<defs>
<clipPath id="clip0_608_8363">
<rect width="32" height="32" fill="white"/>
</clipPath>
</defs>
</svg>
