<svg width="15" height="15" viewBox="0 0 15 15" fill="none" xmlns="http://www.w3.org/2000/svg">
<path d="M4.64095 1.76875C4.69513 1.61687 4.79498 1.48548 4.9268 1.3926C5.05862 1.29973 5.21594 1.24991 5.3772 1.25H9.41032C9.5341 1.25 9.65611 1.2794 9.76629 1.33579C9.87648 1.39219 9.97169 1.47395 10.0441 1.57436C10.1165 1.67476 10.164 1.79093 10.1826 1.91328C10.2013 2.03564 10.1907 2.16069 10.1516 2.27813L9.24407 5H11.7191C12.4084 5 12.7597 5.82937 12.2797 6.325L5.36657 13.46C4.70782 14.14 3.57157 13.5262 3.77845 12.6025L4.5722 9.06L3.59095 9.05625C3.41617 9.05549 3.24411 9.01285 3.0892 8.93191C2.93429 8.85097 2.80103 8.73409 2.70059 8.59105C2.60015 8.448 2.53545 8.28297 2.51191 8.10978C2.48838 7.93659 2.50669 7.76028 2.56532 7.59562L4.64095 1.76875ZM5.4872 2.1875L3.44845 7.91062C3.44019 7.9341 3.43765 7.9592 3.44105 7.98385C3.44445 8.0085 3.45369 8.03198 3.46799 8.05234C3.4823 8.0727 3.50126 8.08935 3.5233 8.1009C3.54534 8.11245 3.56982 8.11857 3.5947 8.11875L5.15845 8.125C5.22856 8.12527 5.29772 8.14126 5.36084 8.1718C5.42395 8.20234 5.47941 8.24664 5.52313 8.30146C5.56685 8.35627 5.59771 8.4202 5.61345 8.48852C5.62919 8.55685 5.62941 8.62783 5.61407 8.69625L4.69345 12.8075L11.3497 5.9375H8.59345C8.51927 5.93735 8.44618 5.91959 8.3802 5.88568C8.31422 5.85178 8.25722 5.8027 8.2139 5.74248C8.17059 5.68226 8.14218 5.61262 8.13102 5.53928C8.11985 5.46595 8.12626 5.39101 8.1497 5.32062L9.19345 2.1875H5.4872Z" fill="#069341"/>
<path d="M5.4872 2.1875L3.44845 7.91062C3.44019 7.9341 3.43765 7.9592 3.44105 7.98385C3.44445 8.0085 3.45369 8.03198 3.46799 8.05234C3.4823 8.0727 3.50126 8.08935 3.5233 8.1009C3.54534 8.11245 3.56982 8.11857 3.5947 8.11875L5.15845 8.125C5.22856 8.12527 5.29772 8.14126 5.36084 8.1718C5.42395 8.20234 5.47941 8.24664 5.52313 8.30146C5.56685 8.35627 5.59771 8.4202 5.61345 8.48852C5.62919 8.55685 5.62941 8.62783 5.61407 8.69625L4.69345 12.8075L11.3497 5.9375H8.59345C8.51927 5.93735 8.44618 5.91959 8.3802 5.88568C8.31422 5.85178 8.25722 5.8027 8.2139 5.74248C8.17059 5.68226 8.14218 5.61262 8.13102 5.53928C8.11985 5.46595 8.12626 5.39101 8.1497 5.32062L9.19345 2.1875H5.4872Z" fill="#27AE60" fill-opacity="0.1"/>
</svg>
