<svg width="36" height="36" viewBox="0 0 36 36" fill="none" xmlns="http://www.w3.org/2000/svg">
<path d="M7.51758 17.9797V11.1016C7.53801 9.74964 7.82502 8.41496 8.36219 7.17408C8.89935 5.93319 9.6761 4.81048 10.6479 3.87029C11.6198 2.9301 12.7676 2.19089 14.0256 1.69504C15.2836 1.19918 16.6271 0.956417 17.9791 0.980655C19.3311 0.956417 20.6746 1.19918 21.9326 1.69504C23.1907 2.19089 24.3385 2.9301 25.3103 3.87029C26.2821 4.81048 27.0589 5.93319 27.596 7.17408C28.1332 8.41496 28.4202 9.74964 28.4407 11.1016V17.9797" stroke="#901C27" stroke-width="1.95833" stroke-linecap="round" stroke-linejoin="round"/>
<path d="M3.59488 14.0571H6.21026C6.55708 14.0571 6.8897 14.1949 7.13494 14.4401C7.38018 14.6853 7.51795 15.0179 7.51795 15.3647V23.2105C7.51795 23.5573 7.38018 23.8899 7.13494 24.1351C6.8897 24.3803 6.55708 24.5181 6.21026 24.5181H3.59488C2.90123 24.5181 2.236 24.2426 1.74552 23.7521C1.25504 23.2617 0.979492 22.5965 0.979492 21.9029V16.6724C0.979492 15.9788 1.25504 15.3136 1.74552 14.8231C2.236 14.3327 2.90123 14.0571 3.59488 14.0571ZM32.3641 24.5181H29.7487C29.4019 24.5181 29.0693 24.3803 28.824 24.1351C28.5788 23.8899 28.441 23.5573 28.441 23.2105V15.3647C28.441 15.0179 28.5788 14.6853 28.824 14.4401C29.0693 14.1949 29.4019 14.0571 29.7487 14.0571H32.3641C33.0578 14.0571 33.723 14.3327 34.2135 14.8231C34.7039 15.3136 34.9795 15.9788 34.9795 16.6724V21.9029C34.9795 22.5965 34.7039 23.2617 34.2135 23.7521C33.723 24.2426 33.0578 24.5181 32.3641 24.5181Z" fill="#FFEDEE"/>
<path d="M23.21 31.7095C24.5972 31.7095 25.9277 31.1584 26.9087 30.1775C27.8896 29.1966 28.4407 27.8662 28.4407 26.479V20.5947" stroke="#901C27" stroke-width="1.95833" stroke-linecap="round" stroke-linejoin="round"/>
<path d="M23.2106 31.7095C23.2106 32.5765 22.8661 33.408 22.253 34.0211C21.6399 34.6341 20.8084 34.9785 19.9413 34.9785H16.0183C15.1512 34.9785 14.3197 34.6341 13.7066 34.0211C13.0935 33.408 12.749 32.5765 12.749 31.7095C12.749 30.8425 13.0935 30.011 13.7066 29.3979C14.3197 28.7848 15.1512 28.4404 16.0183 28.4404H19.9413C20.8084 28.4404 21.6399 28.7848 22.253 29.3979C22.8661 30.011 23.2106 30.8425 23.2106 31.7095Z" fill="#FFEDEE"/>
<path d="M3.59488 14.0571H6.21026C6.55708 14.0571 6.8897 14.1949 7.13494 14.4401C7.38018 14.6853 7.51795 15.0179 7.51795 15.3647V23.2105C7.51795 23.5573 7.38018 23.8899 7.13494 24.1351C6.8897 24.3803 6.55708 24.5181 6.21026 24.5181H3.59488C2.90123 24.5181 2.236 24.2426 1.74552 23.7521C1.25504 23.2617 0.979492 22.5965 0.979492 21.9029V16.6724C0.979492 15.9788 1.25504 15.3136 1.74552 14.8231C2.236 14.3327 2.90123 14.0571 3.59488 14.0571ZM32.3641 24.5181H29.7487C29.4019 24.5181 29.0693 24.3803 28.824 24.1351C28.5788 23.8899 28.441 23.5573 28.441 23.2105V15.3647C28.441 15.0179 28.5788 14.6853 28.824 14.4401C29.0693 14.1949 29.4019 14.0571 29.7487 14.0571H32.3641C33.0578 14.0571 33.723 14.3327 34.2135 14.8231C34.7039 15.3136 34.9795 15.9788 34.9795 16.6724V21.9029C34.9795 22.5965 34.7039 23.2617 34.2135 23.7521C33.723 24.2426 33.0578 24.5181 32.3641 24.5181ZM23.2103 31.71C23.2103 32.577 22.8658 33.4085 22.2527 34.0216C21.6396 34.6346 20.8081 34.9791 19.941 34.9791H16.018C15.1509 34.9791 14.3194 34.6346 13.7063 34.0216C13.0932 33.4085 12.7487 32.577 12.7487 31.71C12.7487 30.843 13.0932 30.0115 13.7063 29.3984C14.3194 28.7854 15.1509 28.441 16.018 28.441H19.941C20.8081 28.441 21.6396 28.7854 22.2527 29.3984C22.8658 30.0115 23.2103 30.843 23.2103 31.71Z" stroke="#901C27" stroke-width="1.95833" stroke-linecap="round" stroke-linejoin="round"/>
</svg>
