<svg width="15" height="15" viewBox="0 0 15 15" fill="none" xmlns="http://www.w3.org/2000/svg">
<path d="M13.9329 12.8918V5.80843C13.9329 5.67906 13.9028 5.55147 13.845 5.43575C13.7871 5.32004 13.7031 5.21939 13.5996 5.14176L7.76628 0.766764C7.62203 0.658579 7.44658 0.600098 7.26628 0.600098C7.08597 0.600098 6.91052 0.658579 6.76628 0.766764L0.932943 5.14176C0.829446 5.21939 0.745443 5.32004 0.687587 5.43575C0.62973 5.55147 0.599609 5.67906 0.599609 5.80843V12.8918C0.599609 13.1128 0.687407 13.3247 0.843687 13.481C0.999968 13.6373 1.21193 13.7251 1.43294 13.7251H4.76628C4.98729 13.7251 5.19925 13.6373 5.35553 13.481C5.51181 13.3247 5.59961 13.1128 5.59961 12.8918V10.3918C5.59961 10.1708 5.68741 9.95879 5.84369 9.80251C5.99997 9.64623 6.21193 9.55843 6.43294 9.55843H8.09961C8.32062 9.55843 8.53258 9.64623 8.68886 9.80251C8.84515 9.95879 8.93294 10.1708 8.93294 10.3918V12.8918C8.93294 13.1128 9.02074 13.3247 9.17702 13.481C9.3333 13.6373 9.54526 13.7251 9.76628 13.7251H13.0996C13.3206 13.7251 13.5326 13.6373 13.6889 13.481C13.8451 13.3247 13.9329 13.1128 13.9329 12.8918Z" fill="#FFEDEE" stroke="#901C27" stroke-width="1.2" stroke-linecap="round" stroke-linejoin="round"/>
</svg>
