<svg width="34" height="34" viewBox="0 0 34 34" fill="none" xmlns="http://www.w3.org/2000/svg">
<path d="M11.5042 13.9956L14.4551 16.9465L14.465 16.938L16.522 18.995L16.5305 19.0035L19.5367 22.0097C20.5274 23.0001 21.7895 23.6745 23.1635 23.9477C24.5375 24.2209 25.9616 24.0805 27.2558 23.5443C28.55 23.0081 29.6562 22.1002 30.4344 20.9354C31.2127 19.7706 31.628 18.4012 31.628 17.0003C31.628 15.5995 31.2127 14.23 30.4344 13.0652C29.6562 11.9004 28.55 10.9925 27.2558 10.4564C25.9616 9.92018 24.5375 9.7798 23.1635 10.053C21.7895 10.3261 20.5274 11.0006 19.5367 11.991L18.5252 13.0025L20.5298 15.0057L21.5399 13.9956C22.1342 13.4011 22.8915 12.9962 23.7159 12.8321C24.5404 12.668 25.395 12.7521 26.1716 13.0737C26.9483 13.3954 27.6121 13.9401 28.0792 14.639C28.5462 15.338 28.7955 16.1597 28.7955 17.0003C28.7955 17.841 28.5462 18.6627 28.0792 19.3616C27.6121 20.0606 26.9483 20.6053 26.1716 20.9269C25.395 21.2486 24.5404 21.3327 23.7159 21.1686C22.8915 21.0045 22.1342 20.5996 21.5399 20.0051L18.6045 17.0697L18.5946 17.0782L13.5088 11.9924C12.5182 11.0016 11.2561 10.3267 9.88203 10.0533C8.50794 9.77977 7.0836 9.91992 5.78917 10.456C4.49473 10.992 3.38834 11.8999 2.60992 13.0648C1.8315 14.2297 1.41602 15.5993 1.41602 17.0003C1.41602 18.4014 1.8315 19.7709 2.60992 20.9358C3.38834 22.1007 4.49473 23.0086 5.78917 23.5447C7.0836 24.0807 8.50794 24.2209 9.88203 23.9474C11.2561 23.6739 12.5182 22.9991 13.5088 22.0082L14.5189 20.9982L12.5157 18.995L11.5042 20.0051C10.9099 20.5996 10.1526 21.0045 9.32814 21.1686C8.50369 21.3327 7.64909 21.2486 6.87243 20.9269C6.09577 20.6053 5.43193 20.0606 4.96488 19.3616C4.49783 18.6627 4.24854 17.841 4.24854 17.0003C4.24854 16.1597 4.49783 15.338 4.96488 14.639C5.43193 13.9401 6.09577 13.3954 6.87243 13.0737C7.64909 12.7521 8.50369 12.668 9.32814 12.8321C10.1526 12.9962 10.9099 13.4011 11.5042 13.9956Z" fill="#901C27"/>
</svg>
