<svg width="22" height="27" viewBox="0 0 22 27" fill="none" xmlns="http://www.w3.org/2000/svg">
<path fill-rule="evenodd" clip-rule="evenodd" d="M5 10.6667H3.01667C1.77 10.6667 0.75 11.6867 0.75 12.9333V22.85C0.75 24.72 2.28 26.25 4.15 26.25H17.1833C19.0533 26.25 20.5833 24.72 20.5833 22.85V12.9333C20.5833 11.6867 19.5633 10.6667 18.3167 10.6667H16.3333H5ZM9.85775 17.444L10.3918 15.3077C10.4627 15.0215 10.8707 15.0215 10.9415 15.3077L11.4756 17.444C11.4881 17.4936 11.5138 17.5389 11.55 17.575C11.5861 17.6112 11.6314 17.6369 11.681 17.6494L13.8173 18.1835C14.1035 18.2543 14.1035 18.6623 13.8173 18.7332L11.681 19.2672C11.6314 19.2798 11.5861 19.3055 11.55 19.3416C11.5138 19.3778 11.4881 19.4231 11.4756 19.4727L10.9415 21.609C10.8707 21.8952 10.4627 21.8952 10.3918 21.609L9.85775 19.4727C9.84524 19.4231 9.81954 19.3778 9.78337 19.3416C9.74721 19.3055 9.70193 19.2798 9.65233 19.2672L7.516 18.7332C7.22983 18.6623 7.22983 18.2543 7.516 18.1835L9.65233 17.6494C9.70193 17.6369 9.74721 17.6112 9.78337 17.575C9.81954 17.5389 9.84524 17.4936 9.85775 17.444Z" fill="#FFEDEE"/>
<path d="M5 10.6667V6.41667C5 3.28583 7.53583 0.75 10.6667 0.75C13.7975 0.75 16.3333 3.28583 16.3333 6.41667V10.6667M5 10.6667H3.01667M5 10.6667H16.3333M16.3333 10.6667H18.3167M3.01667 10.6667H18.3167M3.01667 10.6667C1.77 10.6667 0.75 11.6867 0.75 12.9333V22.85C0.75 24.72 2.28 26.25 4.15 26.25H17.1833C19.0533 26.25 20.5833 24.72 20.5833 22.85V12.9333C20.5833 11.6867 19.5633 10.6667 18.3167 10.6667M10.3918 15.3077L9.85775 17.444C9.84524 17.4936 9.81954 17.5389 9.78337 17.575C9.74721 17.6112 9.70193 17.6369 9.65233 17.6494L7.516 18.1835C7.22983 18.2543 7.22983 18.6623 7.516 18.7332L9.65233 19.2672C9.70193 19.2798 9.74721 19.3055 9.78337 19.3416C9.81954 19.3778 9.84524 19.4231 9.85775 19.4727L10.3918 21.609C10.4627 21.8952 10.8707 21.8952 10.9415 21.609L11.4756 19.4727C11.4881 19.4231 11.5138 19.3778 11.55 19.3416C11.5861 19.3055 11.6314 19.2798 11.681 19.2672L13.8173 18.7332C14.1035 18.6623 14.1035 18.2543 13.8173 18.1835L11.681 17.6494C11.6314 17.6369 11.5861 17.6112 11.55 17.575C11.5138 17.5389 11.4881 17.4936 11.4756 17.444L10.9415 15.3077C10.8707 15.0215 10.4627 15.0215 10.3918 15.3077Z" stroke="#901C27" stroke-width="1.5" stroke-miterlimit="10" stroke-linecap="round" stroke-linejoin="round"/>
</svg>
