<svg width="16" height="16" viewBox="0 0 16 16" fill="none" xmlns="http://www.w3.org/2000/svg">
<path d="M3.33398 2H7.33398C7.86442 2 8.37313 2.21071 8.7482 2.58579C9.12327 2.96086 9.33398 3.46957 9.33398 4V6.66667H8.66732V4C8.66732 3.64638 8.52684 3.30724 8.27679 3.05719C8.02674 2.80714 7.68761 2.66667 7.33398 2.66667H3.33398C2.98036 2.66667 2.64122 2.80714 2.39118 3.05719C2.14113 3.30724 2.00065 3.64638 2.00065 4V12.6667C2.00065 13.0203 2.14113 13.3594 2.39118 13.6095C2.64122 13.8595 2.98036 14 3.33398 14H7.33398C7.68761 14 8.02674 13.8595 8.27679 13.6095C8.52684 13.3594 8.66732 13.0203 8.66732 12.6667V10H9.33398V12.6667C9.33398 13.1971 9.12327 13.7058 8.7482 14.0809C8.37313 14.456 7.86442 14.6667 7.33398 14.6667H3.33398C2.80355 14.6667 2.29484 14.456 1.91977 14.0809C1.5447 13.7058 1.33398 13.1971 1.33398 12.6667V4C1.33398 3.46957 1.5447 2.96086 1.91977 2.58579C2.29484 2.21071 2.80355 2 3.33398 2ZM5.33398 8H12.834L10.6673 5.83333L11.1073 5.33333L14.1073 8.33333L11.1073 11.3333L10.6673 10.8333L12.834 8.66667H5.33398V8Z" fill="#C20505" stroke="#C20505" stroke-width="0.5"/>
</svg>
