<svg width="59" height="52" viewBox="0 0 59 52" fill="none" xmlns="http://www.w3.org/2000/svg">
<path d="M11.8008 25.8225V15.7716C11.8346 13.7959 12.3097 11.8456 13.1988 10.0323C14.0878 8.219 15.3735 6.5784 16.982 5.2045C18.5906 3.8306 20.4904 2.75042 22.5727 2.02582C24.6549 1.30123 26.8786 0.946486 29.1164 0.981906C31.3542 0.946486 33.578 1.30123 35.6602 2.02582C37.7424 2.75042 39.6423 3.8306 41.2508 5.2045C42.8594 6.5784 44.145 8.219 45.0341 10.0323C45.9232 11.8456 46.3983 13.7959 46.4321 15.7716V25.8225" stroke="#901C27" stroke-width="1.95833" stroke-linecap="round" stroke-linejoin="round"/>
<path d="M5.30743 20.0898H9.63634C10.2104 20.0898 10.7609 20.2912 11.1668 20.6495C11.5728 21.0079 11.8008 21.4939 11.8008 22.0007V33.4655C11.8008 33.9723 11.5728 34.4583 11.1668 34.8167C10.7609 35.175 10.2104 35.3764 9.63634 35.3764H5.30743C4.15933 35.3764 3.05825 34.9737 2.24642 34.257C1.4346 33.5403 0.978516 32.5683 0.978516 31.5547V23.9115C0.978516 22.8979 1.4346 21.9259 2.24642 21.2092C3.05825 20.4925 4.15933 20.0898 5.30743 20.0898ZM52.9255 35.3764H48.5966C48.0225 35.3764 47.472 35.175 47.0661 34.8167C46.6601 34.4583 46.4321 33.9723 46.4321 33.4655V22.0007C46.4321 21.4939 46.6601 21.0079 47.0661 20.6495C47.472 20.2912 48.0225 20.0898 48.5966 20.0898H52.9255C54.0736 20.0898 55.1746 20.4925 55.9865 21.2092C56.7983 21.9259 57.2544 22.8979 57.2544 23.9115V31.5547C57.2544 32.5683 56.7983 33.5403 55.9865 34.257C55.1746 34.9737 54.0736 35.3764 52.9255 35.3764Z" fill="#FFEDEE"/>
<path d="M37.7734 45.8864C40.0696 45.8864 42.2718 45.0812 43.8954 43.6478C45.5191 42.2144 46.4313 40.2703 46.4313 38.2432V29.6445" stroke="#901C27" stroke-width="1.95833" stroke-linecap="round" stroke-linejoin="round"/>
<path d="M37.7746 45.8864C37.7746 47.1534 37.2045 48.3684 36.1897 49.2643C35.175 50.1601 33.7986 50.6634 32.3635 50.6634H25.8701C24.435 50.6634 23.0587 50.1601 22.0439 49.2643C21.0291 48.3684 20.459 47.1534 20.459 45.8864C20.459 44.6195 21.0291 43.4044 22.0439 42.5085C23.0587 41.6127 24.435 41.1094 25.8701 41.1094H32.3635C33.7986 41.1094 35.175 41.6127 36.1897 42.5085C37.2045 43.4044 37.7746 44.6195 37.7746 45.8864Z" fill="#FFEDEE"/>
<path d="M5.30743 20.0898H9.63634C10.2104 20.0898 10.7609 20.2912 11.1668 20.6495C11.5728 21.0079 11.8008 21.4939 11.8008 22.0007V33.4655C11.8008 33.9723 11.5728 34.4583 11.1668 34.8167C10.7609 35.175 10.2104 35.3764 9.63634 35.3764H5.30743C4.15933 35.3764 3.05825 34.9737 2.24642 34.257C1.4346 33.5403 0.978516 32.5683 0.978516 31.5547V23.9115C0.978516 22.8979 1.4346 21.9259 2.24642 21.2092C3.05825 20.4925 4.15933 20.0898 5.30743 20.0898ZM52.9255 35.3764H48.5966C48.0225 35.3764 47.472 35.175 47.0661 34.8167C46.6601 34.4583 46.4321 33.9723 46.4321 33.4655V22.0007C46.4321 21.4939 46.6601 21.0079 47.0661 20.6495C47.472 20.2912 48.0225 20.0898 48.5966 20.0898H52.9255C54.0736 20.0898 55.1746 20.4925 55.9865 21.2092C56.7983 21.9259 57.2544 22.8979 57.2544 23.9115V31.5547C57.2544 32.5683 56.7983 33.5403 55.9865 34.257C55.1746 34.9737 54.0736 35.3764 52.9255 35.3764ZM37.7743 45.8858C37.7743 47.1528 37.2042 48.3678 36.1894 49.2637C35.1746 50.1596 33.7983 50.6629 32.3631 50.6629H25.8698C24.4346 50.6629 23.0583 50.1596 22.0435 49.2637C21.0287 48.3678 20.4586 47.1528 20.4586 45.8858C20.4586 44.6189 21.0287 43.4038 22.0435 42.508C23.0583 41.6121 24.4346 41.1088 25.8698 41.1088H32.3631C33.7983 41.1088 35.1746 41.6121 36.1894 42.508C37.2042 43.4038 37.7743 44.6189 37.7743 45.8858Z" stroke="#901C27" stroke-width="1.95833" stroke-linecap="round" stroke-linejoin="round"/>
</svg>
