<svg width="59" height="59" viewBox="0 0 59 59" fill="none" xmlns="http://www.w3.org/2000/svg">
<rect width="59" height="59" rx="8" fill="white"/>
<rect x="0.5" y="0.5" width="58" height="58" rx="7.5" stroke="black" stroke-opacity="0.1"/>
<path d="M16 29.1625C16 29.7026 16.1064 30.2373 16.313 30.7363C16.5197 31.2352 16.8226 31.6886 17.2045 32.0705C17.5864 32.4524 18.0398 32.7553 18.5387 32.962C19.0377 33.1686 19.5724 33.275 20.1125 33.275C20.6526 33.275 21.1873 33.1686 21.6863 32.962C22.1852 32.7553 22.6386 32.4524 23.0205 32.0705C23.4024 31.6886 23.7053 31.2352 23.912 30.7363C24.1186 30.2373 24.225 29.7026 24.225 29.1625C24.225 28.6224 24.1186 28.0877 23.912 27.5887C23.7053 27.0898 23.4024 26.6364 23.0205 26.2545C22.6386 25.8726 22.1852 25.5697 21.6863 25.363C21.1873 25.1564 20.6526 25.05 20.1125 25.05C19.5724 25.05 19.0377 25.1564 18.5387 25.363C18.0398 25.5697 17.5864 25.8726 17.2045 26.2545C16.8226 26.6364 16.5197 27.0898 16.313 27.5887C16.1064 28.0877 16 28.6224 16 29.1625ZM31.275 22.1125C31.275 23.2032 31.7083 24.2492 32.4795 25.0205C33.2508 25.7917 34.2968 26.225 35.3875 26.225C36.4782 26.225 37.5242 25.7917 38.2955 25.0205C39.0667 24.2492 39.5 23.2032 39.5 22.1125C39.5 21.0218 39.0667 19.9758 38.2955 19.2045C37.5242 18.4333 36.4782 18 35.3875 18C34.2968 18 33.2508 18.4333 32.4795 19.2045C31.7083 19.9758 31.275 21.0218 31.275 22.1125ZM31.275 35.0375C31.275 36.1282 31.7083 37.1742 32.4795 37.9455C33.2508 38.7167 34.2968 39.15 35.3875 39.15C36.4782 39.15 37.5242 38.7167 38.2955 37.9455C39.0667 37.1742 39.5 36.1282 39.5 35.0375C39.5 33.9468 39.0667 32.9008 38.2955 32.1295C37.5242 31.3583 36.4782 30.925 35.3875 30.925C34.2968 30.925 33.2508 31.3583 32.4795 32.1295C31.7083 32.9008 31.275 33.9468 31.275 35.0375Z" fill="#FFEDEE"/>
<path d="M23.1892 30.8182L32.4504 34.5002M23.0986 27.9364L32.599 23.3796M16.2988 29.4884C16.2988 29.9746 16.391 30.4561 16.5701 30.9053C16.7491 31.3546 17.0116 31.7628 17.3425 32.1066C17.6734 32.4504 18.0662 32.7231 18.4985 32.9092C18.9308 33.0953 19.3942 33.1911 19.8621 33.1911C20.3301 33.1911 20.7934 33.0953 21.2257 32.9092C21.6581 32.7231 22.0509 32.4504 22.3818 32.1066C22.7126 31.7628 22.9751 31.3546 23.1542 30.9053C23.3333 30.4561 23.4254 29.9746 23.4254 29.4884C23.4254 29.0022 23.3333 28.5207 23.1542 28.0714C22.9751 27.6222 22.7126 27.214 22.3818 26.8702C22.0509 26.5264 21.6581 26.2536 21.2257 26.0676C20.7934 25.8815 20.3301 25.7857 19.8621 25.7857C19.3942 25.7857 18.9308 25.8815 18.4985 26.0676C18.0662 26.2536 17.6734 26.5264 17.3425 26.8702C17.0116 27.214 16.7491 27.6222 16.5701 28.0714C16.391 28.5207 16.2988 29.0022 16.2988 29.4884ZM32.2722 21.8277C32.2722 22.8097 32.6476 23.7515 33.3159 24.4459C33.9841 25.1403 34.8905 25.5304 35.8355 25.5304C36.7806 25.5304 37.6869 25.1403 38.3552 24.4459C39.0234 23.7515 39.3988 22.8097 39.3988 21.8277C39.3988 20.8457 39.0234 19.9039 38.3552 19.2095C37.6869 18.5151 36.7806 18.125 35.8355 18.125C34.8905 18.125 33.9841 18.5151 33.3159 19.2095C32.6476 19.9039 32.2722 20.8457 32.2722 21.8277ZM32.2122 35.8412C32.2122 36.8314 32.5908 37.7811 33.2647 38.4814C33.9386 39.1816 34.8525 39.575 35.8055 39.575C36.7585 39.575 37.6725 39.1816 38.3464 38.4814C39.0203 37.7811 39.3988 36.8314 39.3988 35.8412C39.3988 34.8509 39.0203 33.9012 38.3464 33.2009C37.6725 32.5007 36.7585 32.1073 35.8055 32.1073C34.8525 32.1073 33.9386 32.5007 33.2647 33.2009C32.5908 33.9012 32.2122 34.8509 32.2122 35.8412Z" stroke="#901C27" stroke-width="1.5"/>
</svg>
