<svg width="20" height="20" viewBox="0 0 20 20" fill="none" xmlns="http://www.w3.org/2000/svg">
<path d="M6.176 11.6928L11.7888 13.9243M6.12108 9.94633L11.8789 7.18462M2 10.8869C2 11.1816 2.05586 11.4734 2.16439 11.7457C2.27292 12.0179 2.43199 12.2653 2.63252 12.4737C2.83306 12.6821 3.07113 12.8474 3.33314 12.9601C3.59515 13.0729 3.87597 13.131 4.15957 13.131C4.44317 13.131 4.724 13.0729 4.98601 12.9601C5.24802 12.8474 5.48609 12.6821 5.68662 12.4737C5.88716 12.2653 6.04623 12.0179 6.15476 11.7457C6.26329 11.4734 6.31915 11.1816 6.31915 10.8869C6.31915 10.5922 6.26329 10.3004 6.15476 10.0281C6.04623 9.75589 5.88716 9.5085 5.68662 9.30012C5.48609 9.09175 5.24802 8.92645 4.98601 8.81368C4.724 8.7009 4.44317 8.64286 4.15957 8.64286C3.87597 8.64286 3.59515 8.7009 3.33314 8.81368C3.07113 8.92645 2.83306 9.09175 2.63252 9.30012C2.43199 9.5085 2.27292 9.75589 2.16439 10.0281C2.05586 10.3004 2 10.5922 2 10.8869ZM11.6809 6.24405C11.6809 6.83921 11.9084 7.40999 12.3134 7.83083C12.7184 8.25167 13.2677 8.4881 13.8404 8.4881C14.4132 8.4881 14.9625 8.25167 15.3675 7.83083C15.7725 7.40999 16 6.83921 16 6.24405C16 5.64889 15.7725 5.07811 15.3675 4.65727C14.9625 4.23643 14.4132 4 13.8404 4C13.2677 4 12.7184 4.23643 12.3134 4.65727C11.9084 5.07811 11.6809 5.64889 11.6809 6.24405ZM11.6445 14.7371C11.6445 15.3372 11.8739 15.9128 12.2823 16.3372C12.6907 16.7616 13.2447 17 13.8222 17C14.3998 17 14.9537 16.7616 15.3622 16.3372C15.7706 15.9128 16 15.3372 16 14.7371C16 14.1369 15.7706 13.5613 15.3622 13.1369C14.9537 12.7125 14.3998 12.4741 13.8222 12.4741C13.2447 12.4741 12.6907 12.7125 12.2823 13.1369C11.8739 13.5613 11.6445 14.1369 11.6445 14.7371Z" stroke="#901C27" stroke-width="1.2"/>
</svg>
