<svg width="40" height="40" viewBox="0 0 40 40" fill="none" xmlns="http://www.w3.org/2000/svg">
<rect width="40" height="40" rx="9.89602" fill="#E6D6D7"/>
<g clip-path="url(#clip0_603_7884)">
<path d="M19.9327 19.5331C21.7327 19.5331 23.1327 18.0664 23.1327 16.2664C23.1327 14.4664 21.666 13.0664 19.866 13.0664C18.066 13.0664 16.666 14.5331 16.666 16.2664C16.666 18.0664 18.1327 19.5331 19.9327 19.5331ZM19.866 14.3997C19.9327 14.3997 19.9327 14.3997 19.866 14.3997C20.9327 14.3997 21.7993 15.2664 21.7993 16.3331C21.7993 17.3997 20.9327 18.1997 19.866 18.1997C18.7993 18.1997 17.9993 17.3331 17.9993 16.3331C17.9993 15.2664 18.866 14.3997 19.866 14.3997Z" fill="#901C27"/>
<path d="M19.866 14.3997C20.9327 14.3997 21.7993 15.2664 21.7993 16.3331C21.7993 17.3997 20.9327 18.1997 19.866 18.1997C18.7993 18.1997 17.9993 17.3331 17.9993 16.3331C17.9993 15.2664 18.866 14.3997 19.866 14.3997Z" fill="#FFEDEE"/>
<path d="M29.8 19.1336C28.5333 18.0003 26.8667 17.4003 25.1333 17.4669H24.6C24.4667 18.0003 24.2667 18.4669 24 18.8669C24.4 18.8003 24.7333 18.8003 25.1333 18.8003C26.4 18.7336 27.6667 19.1336 28.6667 19.8669V24.6669H30V19.3336L29.8 19.1336Z" fill="#901C27"/>
<path d="M23.5993 13.1995C23.9327 12.3995 24.866 11.9995 25.7327 12.3329C26.5327 12.6662 26.9327 13.5995 26.5993 14.4662C26.3327 15.0662 25.7327 15.4662 25.1327 15.4662C24.9993 15.4662 24.7993 15.4662 24.666 15.3995C24.7327 15.7329 24.7327 16.0662 24.7327 16.3329V16.7329C24.866 16.7329 24.9993 16.7995 25.1327 16.7995C26.7993 16.7995 28.1327 15.4662 28.1327 13.8662C28.1327 12.1995 26.7993 10.8662 25.1993 10.8662C24.1327 10.8662 23.1993 11.3995 22.666 12.3329C22.9993 12.5329 23.3327 12.7995 23.5993 13.1995Z" fill="#901C27"/>
<path d="M16 18.9333C15.7333 18.5333 15.5333 18.0667 15.4 17.5333H14.8667C13.1333 17.4667 11.4667 18.0667 10.2 19.1333L10 19.3333V24.6667H11.3333V19.8667C12.4 19.1333 13.6 18.7333 14.8667 18.8C15.2667 18.8 15.6667 18.8667 16 18.9333Z" fill="#901C27"/>
<path d="M14.8672 16.7331C15.0005 16.7331 15.1338 16.7331 15.2672 16.6664V16.2664C15.2672 15.9331 15.2672 15.5998 15.3338 15.3331C15.2005 15.3998 15.0005 15.3998 14.8672 15.3998C14.0005 15.3998 13.2672 14.6664 13.2672 13.7998C13.2672 12.9331 14.0005 12.1998 14.8672 12.1998C15.5338 12.1998 16.1338 12.5998 16.4005 13.1998C16.6672 12.8664 17.0672 12.5331 17.4005 12.2664C16.5338 10.8664 14.7338 10.3998 13.3338 11.2664C11.9338 12.1331 11.4672 13.9331 12.3338 15.3331C12.8672 16.1998 13.8005 16.7331 14.8672 16.7331Z" fill="#901C27"/>
<path d="M25.3993 23.1333L25.266 22.9333C23.9327 21.4667 22.066 20.6 20.066 20.6667C18.066 20.6 16.1327 21.4667 14.7993 22.9333L14.666 23.1333V28.2C14.666 28.8 15.1327 29.3333 15.7993 29.3333H24.3327C24.9327 29.3333 25.466 28.8 25.466 28.2V23.1333H25.3993ZM24.066 28H15.9993V23.6C17.066 22.5333 18.5327 22 20.066 22C21.5327 21.9333 22.9993 22.5333 24.066 23.6V28Z" fill="#901C27"/>
<path d="M24.066 28H15.9993V23.6C17.066 22.5333 18.5327 22 20.066 22C21.5327 21.9333 22.9993 22.5333 24.066 23.6V28Z" fill="#FFEDEE"/>
</g>
<defs>
<clipPath id="clip0_603_7884">
<rect width="24" height="24" fill="white" transform="translate(8 8)"/>
</clipPath>
</defs>
</svg>
