<svg width="23" height="29" viewBox="0 0 23 29" fill="none" xmlns="http://www.w3.org/2000/svg">
<path d="M4.84839 1.17583C4.9712 0.831577 5.19752 0.533757 5.49631 0.323235C5.7951 0.112712 6.15171 -0.000196372 6.51722 2.56383e-07H15.659C15.9395 -1.11935e-05 16.2161 0.066641 16.4658 0.194465C16.7156 0.322289 16.9314 0.507627 17.0955 0.735207C17.2596 0.962788 17.3672 1.2261 17.4096 1.50344C17.4519 1.78079 17.4278 2.06423 17.3391 2.33042L15.2821 8.5H20.8921C22.4547 8.5 23.2509 10.3799 22.1629 11.5033L6.49314 27.676C4.99997 29.2173 2.42447 27.8262 2.89339 25.7323L4.69255 17.7027L2.46839 17.6942C2.07222 17.6924 1.68223 17.5958 1.33109 17.4123C0.979957 17.2289 0.677903 16.9639 0.450237 16.6397C0.222571 16.3155 0.0759221 15.9414 0.0225774 15.5488C-0.0307673 15.1563 0.0107456 14.7566 0.143638 14.3834L4.84839 1.17583ZM6.76655 2.125L2.14539 15.0974C2.12666 15.1506 2.12091 15.2075 2.12862 15.2634C2.13632 15.3193 2.15726 15.3725 2.18969 15.4186C2.22211 15.4648 2.26509 15.5025 2.31505 15.5287C2.365 15.5549 2.42049 15.5688 2.47689 15.5692L6.02139 15.5833C6.18031 15.5839 6.33708 15.6202 6.48014 15.6894C6.62319 15.7586 6.7489 15.8591 6.848 15.9833C6.9471 16.1076 7.01706 16.2524 7.05274 16.4073C7.08841 16.5622 7.08889 16.7231 7.05414 16.8782L4.96739 26.197L20.0549 10.625H13.8074C13.6392 10.6246 13.4736 10.5844 13.324 10.5075C13.1745 10.4307 13.0453 10.3195 12.9471 10.183C12.8489 10.0465 12.7845 9.88861 12.7592 9.72237C12.7339 9.55614 12.7484 9.38628 12.8016 9.22675L15.1674 2.125H6.76655Z" fill="#901C27"/>
<path d="M6.76655 2.125L2.14539 15.0974C2.12666 15.1506 2.12091 15.2075 2.12862 15.2634C2.13632 15.3193 2.15726 15.3725 2.18969 15.4186C2.22211 15.4648 2.26509 15.5025 2.31505 15.5287C2.365 15.5549 2.42049 15.5688 2.47689 15.5692L6.02139 15.5833C6.18031 15.5839 6.33708 15.6202 6.48014 15.6894C6.62319 15.7586 6.7489 15.8591 6.848 15.9833C6.9471 16.1076 7.01706 16.2524 7.05274 16.4073C7.08841 16.5622 7.08889 16.7231 7.05414 16.8782L4.96739 26.197L20.0549 10.625H13.8074C13.6392 10.6246 13.4736 10.5844 13.324 10.5075C13.1745 10.4307 13.0453 10.3195 12.9471 10.183C12.8489 10.0465 12.7845 9.88861 12.7592 9.72237C12.7339 9.55614 12.7484 9.38628 12.8016 9.22675L15.1674 2.125H6.76655Z" fill="#FFEDEE"/>
</svg>
