<svg width="46" height="46" viewBox="0 0 46 46" fill="none" xmlns="http://www.w3.org/2000/svg">
<path d="M15.3577 5.18766L15.0303 5.44847C14.6781 5.72832 14.501 5.86729 14.3259 5.95677C13.7186 6.26137 12.9933 6.22139 12.4221 5.85206C12.2584 5.74545 12.0985 5.58554 11.7806 5.26952C11.0191 4.51564 10.6383 4.13679 10.3509 3.99782C10.1091 3.88066 9.84539 3.81582 9.57688 3.80755C9.30838 3.79927 9.04115 3.84775 8.79265 3.9498C8.54416 4.05186 8.32 4.2052 8.13482 4.3998C7.94963 4.59441 7.8076 4.8259 7.71799 5.07914C7.61328 5.37994 7.61328 5.91298 7.61328 6.98098V39.4036C7.61328 39.8929 7.61328 40.1366 7.63613 40.2794C7.85315 41.6805 9.49037 42.3544 10.644 41.5149C10.7602 41.4292 10.9353 41.256 11.2837 40.9114C11.5026 40.6944 11.613 40.584 11.7158 40.5002C12.1876 40.1139 12.77 39.8877 13.3788 39.8542C13.9876 39.8206 14.5913 39.9815 15.1026 40.3136C15.2149 40.386 15.3368 40.4831 15.5785 40.6753L15.8375 40.8809C16.2753 41.2293 16.4961 41.4026 16.7151 41.5206C17.568 41.9832 18.5998 41.9832 19.4527 41.5206C19.6716 41.4026 19.8905 41.2293 20.3284 40.8809L20.4635 40.7743C21.029 40.327 21.3107 40.1023 21.602 39.9633C21.9895 39.7778 22.4136 39.6815 22.8432 39.6815C23.2728 39.6815 23.697 39.7778 24.0845 39.9633C24.3757 40.1023 24.6575 40.325 25.2229 40.7743L25.3562 40.8809C25.794 41.2293 26.0149 41.4026 26.2338 41.5206C27.0867 41.9832 28.1185 41.9832 28.9714 41.5206C29.1903 41.4026 29.4092 41.2293 29.8471 40.8809L30.1079 40.6753C30.3497 40.4831 30.4715 40.386 30.5838 40.3136C31.0952 39.9815 31.6989 39.8206 32.3077 39.8542C32.9165 39.8877 33.4988 40.1139 33.9706 40.5002C34.0734 40.584 34.1838 40.6925 34.4028 40.9114C34.7511 41.256 34.9263 41.4292 35.0424 41.5149C36.1961 42.3525 37.8352 41.6805 38.0503 40.2794C38.0732 40.1366 38.0732 39.8929 38.0732 39.4036V6.98098C38.0732 5.91298 38.0732 5.37994 37.9685 5.07914C37.8789 4.8259 37.7368 4.59441 37.5516 4.3998C37.3665 4.2052 37.1423 4.05186 36.8938 3.9498C36.6453 3.84775 36.3781 3.79927 36.1096 3.80755C35.8411 3.81582 35.5773 3.88066 35.3356 3.99782C35.05 4.13679 34.6693 4.51564 33.9078 5.26952C33.588 5.58554 33.428 5.74545 33.2624 5.85206C32.9816 6.03353 32.6583 6.13864 32.3244 6.157C31.9906 6.17536 31.6577 6.10635 31.3587 5.95677C31.1854 5.86729 31.0084 5.72832 30.6562 5.44847L30.3287 5.18766C29.434 4.47756 28.9847 4.12156 28.4954 3.96355C27.9167 3.77318 27.2885 3.77318 26.7097 3.96355C26.2205 4.12347 25.7731 4.47756 24.8764 5.18766L24.747 5.29236C24.0673 5.83303 23.7266 6.10145 23.3496 6.20616C23.0182 6.29761 22.6682 6.29761 22.3368 6.20616C21.9599 6.10145 21.6191 5.83303 20.9395 5.29236L20.81 5.18956C19.9153 4.47947 19.466 4.12347 18.9786 3.96545C18.3975 3.77372 17.7702 3.77372 17.1891 3.96545C16.7018 4.12537 16.2544 4.47947 15.3577 5.18956M28.5545 17.1336L17.132 28.5561L28.5545 17.1336Z" fill="#FFEDEE"/>
<path d="M15.3577 5.18766L15.0303 5.44847C14.6781 5.72832 14.501 5.86729 14.3259 5.95677C13.7186 6.26137 12.9933 6.22139 12.4221 5.85206C12.2584 5.74545 12.0985 5.58554 11.7806 5.26952C11.0191 4.51564 10.6383 4.13679 10.3509 3.99782C10.1091 3.88066 9.84539 3.81582 9.57688 3.80755C9.30838 3.79927 9.04115 3.84775 8.79266 3.9498C8.54416 4.05186 8.32 4.2052 8.13482 4.3998C7.94963 4.59441 7.8076 4.8259 7.71799 5.07914C7.61328 5.37994 7.61328 5.91298 7.61328 6.98098V39.4036C7.61328 39.8929 7.61328 40.1366 7.63613 40.2794C7.85315 41.6805 9.49037 42.3544 10.644 41.5149C10.7602 41.4292 10.9353 41.256 11.2837 40.9114C11.5026 40.6944 11.613 40.584 11.7158 40.5002C12.1876 40.1139 12.77 39.8877 13.3788 39.8542C13.9876 39.8206 14.5913 39.9815 15.1026 40.3136C15.2149 40.386 15.3368 40.4831 15.5785 40.6753L15.8375 40.8809C16.2753 41.2293 16.4961 41.4026 16.7151 41.5206C17.568 41.9832 18.5998 41.9832 19.4527 41.5206C19.6716 41.4026 19.8905 41.2293 20.3284 40.8809L20.4635 40.7743C21.029 40.3269 21.3107 40.1023 21.602 39.9633C21.9895 39.7778 22.4136 39.6815 22.8432 39.6815C23.2728 39.6815 23.697 39.7778 24.0845 39.9633C24.3757 40.1023 24.6575 40.325 25.2229 40.7743L25.3562 40.8809C25.794 41.2293 26.0149 41.4026 26.2338 41.5206C27.0867 41.9832 28.1185 41.9832 28.9714 41.5206C29.1903 41.4026 29.4092 41.2293 29.8471 40.8809L30.1079 40.6753C30.3497 40.4831 30.4715 40.386 30.5838 40.3136C31.0952 39.9815 31.6989 39.8206 32.3077 39.8542C32.9165 39.8877 33.4988 40.1139 33.9706 40.5002C34.0734 40.584 34.1838 40.6925 34.4028 40.9114C34.7511 41.256 34.9263 41.4292 35.0424 41.5149C36.1961 42.3525 37.8352 41.6805 38.0503 40.2794C38.0732 40.1366 38.0732 39.8929 38.0732 39.4036V6.98098C38.0732 5.91298 38.0732 5.37994 37.9685 5.07914C37.8789 4.8259 37.7368 4.59441 37.5516 4.3998C37.3665 4.2052 37.1423 4.05186 36.8938 3.9498C36.6453 3.84775 36.3781 3.79927 36.1096 3.80755C35.8411 3.81582 35.5773 3.88066 35.3356 3.99782C35.05 4.13679 34.6693 4.51564 33.9078 5.26952C33.588 5.58554 33.428 5.74545 33.2624 5.85206C32.9816 6.03353 32.6583 6.13864 32.3244 6.157C31.9906 6.17536 31.6577 6.10635 31.3587 5.95677C31.1854 5.86729 31.0084 5.72832 30.6562 5.44847L30.3287 5.18766C29.434 4.47756 28.9847 4.12156 28.4954 3.96355C27.9167 3.77318 27.2885 3.77318 26.7097 3.96355C26.2205 4.12347 25.7731 4.47756 24.8764 5.18766L24.747 5.29236C24.0673 5.83303 23.7266 6.10145 23.3496 6.20616C23.0182 6.29761 22.6682 6.29761 22.3368 6.20616C21.9599 6.10145 21.6191 5.83303 20.9395 5.29236L20.81 5.18956C19.9153 4.47947 19.466 4.12347 18.9786 3.96545C18.3975 3.77372 17.7702 3.77372 17.1891 3.96545C16.7018 4.12537 16.2544 4.47947 15.3577 5.18956M28.5545 17.1336L17.132 28.5561" stroke="#901C27" stroke-width="1.5" stroke-linecap="round" stroke-linejoin="round"/>
<path d="M17.8467 17.6087H17.6087H17.8467ZM18.0847 17.6087C18.0847 17.735 18.0345 17.856 17.9453 17.9453C17.856 18.0345 17.735 18.0847 17.6087 18.0847C17.4825 18.0847 17.3615 18.0345 17.2722 17.9453C17.183 17.856 17.1328 17.735 17.1328 17.6087C17.1328 17.4825 17.183 17.3615 17.2722 17.2722C17.3615 17.183 17.4825 17.1328 17.6087 17.1328C17.735 17.1328 17.856 17.183 17.9453 17.2722C18.0345 17.3615 18.0847 17.4825 18.0847 17.6087ZM28.3173 28.0793H28.0793H28.3173ZM28.5553 28.0793C28.5553 28.2056 28.5051 28.3266 28.4159 28.4159C28.3266 28.5051 28.2056 28.5553 28.0793 28.5553C27.9531 28.5553 27.8321 28.5051 27.7428 28.4159C27.6535 28.3266 27.6034 28.2056 27.6034 28.0793C27.6034 27.9531 27.6535 27.8321 27.7428 27.7428C27.8321 27.6535 27.9531 27.6034 28.0793 27.6034C28.2056 27.6034 28.3266 27.6535 28.4159 27.7428C28.5051 27.8321 28.5553 27.9531 28.5553 28.0793Z" fill="#FFEDEE"/>
<path d="M17.8467 17.6087H17.6087M28.3173 28.0793H28.0793M18.0847 17.6087C18.0847 17.735 18.0345 17.856 17.9453 17.9453C17.856 18.0345 17.735 18.0847 17.6087 18.0847C17.4825 18.0847 17.3615 18.0345 17.2722 17.9453C17.183 17.856 17.1328 17.735 17.1328 17.6087C17.1328 17.4825 17.183 17.3615 17.2722 17.2722C17.3615 17.183 17.4825 17.1328 17.6087 17.1328C17.735 17.1328 17.856 17.183 17.9453 17.2722C18.0345 17.3615 18.0847 17.4825 18.0847 17.6087ZM28.5553 28.0793C28.5553 28.2056 28.5051 28.3266 28.4159 28.4159C28.3266 28.5051 28.2056 28.5553 28.0793 28.5553C27.9531 28.5553 27.8321 28.5051 27.7428 28.4159C27.6535 28.3266 27.6034 28.2056 27.6034 28.0793C27.6034 27.9531 27.6535 27.8321 27.7428 27.7428C27.8321 27.6535 27.9531 27.6034 28.0793 27.6034C28.2056 27.6034 28.3266 27.6535 28.4159 27.7428C28.5051 27.8321 28.5553 27.9531 28.5553 28.0793Z" stroke="#901C27" stroke-width="1.5" stroke-linecap="round" stroke-linejoin="round"/>
</svg>
