<svg width="54" height="54" viewBox="0 0 54 54" fill="none" xmlns="http://www.w3.org/2000/svg">
<mask id="path-1-inside-1_512_6802" fill="white">
<path d="M0 9.30853C0 4.16757 4.16757 0 9.30853 0H44.6915C49.8324 0 54 4.16757 54 9.30853V44.6915C54 49.8324 49.8324 54 44.6915 54H9.30853C4.16757 54 0 49.8324 0 44.6915V9.30853Z"/>
</mask>
<path d="M0 9.30853C0 4.16757 4.16757 0 9.30853 0H44.6915C49.8324 0 54 4.16757 54 9.30853V44.6915C54 49.8324 49.8324 54 44.6915 54H9.30853C4.16757 54 0 49.8324 0 44.6915V9.30853Z" fill="white"/>
<path d="M9.30853 0V0.918605H44.6915V0V-0.918605H9.30853V0ZM54 9.30853H53.0814V44.6915H54H54.9186V9.30853H54ZM44.6915 54V53.0814H9.30853V54V54.9186H44.6915V54ZM0 44.6915H0.918605V9.30853H0H-0.918605V44.6915H0ZM9.30853 54V53.0814C4.6749 53.0814 0.918605 49.3251 0.918605 44.6915H0H-0.918605C-0.918605 50.3398 3.66024 54.9186 9.30853 54.9186V54ZM54 44.6915H53.0814C53.0814 49.3251 49.3251 53.0814 44.6915 53.0814V54V54.9186C50.3398 54.9186 54.9186 50.3398 54.9186 44.6915H54ZM44.6915 0V0.918605C49.3251 0.918605 53.0814 4.6749 53.0814 9.30853H54H54.9186C54.9186 3.66024 50.3398 -0.918605 44.6915 -0.918605V0ZM9.30853 0V-0.918605C3.66024 -0.918605 -0.918605 3.66024 -0.918605 9.30853H0H0.918605C0.918605 4.6749 4.6749 0.918605 9.30853 0.918605V0Z" fill="black" fill-opacity="0.08" mask="url(#path-1-inside-1_512_6802)"/>
<g clip-path="url(#clip0_512_6802)">
<path d="M9.94043 37.4987C9.94043 38.1939 10.2162 38.8607 10.7073 39.3527C11.1984 39.8448 11.8646 40.1219 12.5598 40.1233H41.4407C42.1359 40.1219 42.8021 39.8448 43.2932 39.3527C43.7842 38.8607 44.06 38.1939 44.06 37.4987V32.1603C42.9268 31.853 41.9263 31.1812 41.2129 30.2486C40.4995 29.316 40.113 28.1745 40.113 27.0004C40.113 25.8262 40.4995 24.6847 41.2129 23.7521C41.9263 22.8195 42.9268 22.1477 44.06 21.8404V16.502C44.06 15.8069 43.7842 15.1401 43.2932 14.648C42.8021 14.156 42.1359 13.8788 41.4407 13.8774H12.5598C11.8646 13.8788 11.1984 14.156 10.7073 14.648C10.2162 15.1401 9.94043 15.8069 9.94043 16.502V21.8299C11.0827 22.1304 12.0933 22.8006 12.8145 23.736C13.5357 24.6714 13.9268 25.8192 13.9268 27.0004C13.9268 28.1815 13.5357 29.3294 12.8145 30.2647C12.0933 31.2001 11.0827 31.8704 9.94043 32.1708V37.4987Z" fill="#FFEDEE"/>
<path d="M20.4913 33.5618L33.6142 20.4389M9.94043 37.4987C9.94043 38.1939 10.2162 38.8607 10.7073 39.3527C11.1984 39.8448 11.8646 40.1219 12.5598 40.1233H41.4407C42.1359 40.1219 42.8021 39.8448 43.2932 39.3527C43.7842 38.8607 44.06 38.1939 44.06 37.4987V32.1603C42.9268 31.853 41.9263 31.1812 41.2129 30.2486C40.4995 29.316 40.113 28.1745 40.113 27.0004C40.113 25.8262 40.4995 24.6847 41.2129 23.7521C41.9263 22.8195 42.9268 22.1477 44.06 21.8404V16.502C44.06 15.8069 43.7842 15.1401 43.2932 14.648C42.8021 14.156 42.1359 13.8788 41.4407 13.8774H12.5598C11.8646 13.8788 11.1984 14.156 10.7073 14.648C10.2162 15.1401 9.94043 15.8069 9.94043 16.502V21.8299C11.0827 22.1304 12.0933 22.8006 12.8145 23.736C13.5357 24.6714 13.9268 25.8192 13.9268 27.0004C13.9268 28.1815 13.5357 29.3294 12.8145 30.2647C12.0933 31.2001 11.0827 31.8704 9.94043 32.1708V37.4987Z" stroke="#901C27" stroke-width="1.5" stroke-linecap="round" stroke-linejoin="round"/>
<path d="M21.8035 23.0626C22.1515 23.0626 22.4853 22.9243 22.7314 22.6782C22.9775 22.4321 23.1158 22.0983 23.1158 21.7503C23.1158 21.4022 22.9775 21.0685 22.7314 20.8224C22.4853 20.5762 22.1515 20.438 21.8035 20.438C21.4555 20.438 21.1217 20.5762 20.8756 20.8224C20.6295 21.0685 20.4912 21.4022 20.4912 21.7503C20.4912 22.0983 20.6295 22.4321 20.8756 22.6782C21.1217 22.9243 21.4555 23.0626 21.8035 23.0626ZM32.3018 33.5609C32.6499 33.5609 32.9837 33.4227 33.2298 33.1766C33.4759 32.9304 33.6141 32.5967 33.6141 32.2486C33.6141 31.9006 33.4759 31.5668 33.2298 31.3207C32.9837 31.0746 32.6499 30.9363 32.3018 30.9363C31.9538 30.9363 31.62 31.0746 31.3739 31.3207C31.1278 31.5668 30.9896 31.9006 30.9896 32.2486C30.9896 32.5967 31.1278 32.9304 31.3739 33.1766C31.62 33.4227 31.9538 33.5609 32.3018 33.5609Z" stroke="#901C27" stroke-width="1.5" stroke-linecap="round" stroke-linejoin="round"/>
</g>
<defs>
<clipPath id="clip0_512_6802">
<rect width="36.7442" height="36.7442" fill="white" transform="translate(8.62793 8.62793)"/>
</clipPath>
</defs>
</svg>
