<svg width="40" height="40" viewBox="0 0 40 40" fill="none" xmlns="http://www.w3.org/2000/svg">
<rect width="40" height="40" rx="9.89602" fill="#E6D6D7"/>
<path d="M22.999 26.128C23.8521 26.3754 24.7359 26.5006 25.624 26.5C27.0526 26.5034 28.4627 26.1776 29.745 25.548C29.7477 25.4907 29.749 25.433 29.749 25.375C29.7491 24.4929 29.4664 23.634 28.9424 22.9244C28.4185 22.2147 27.6808 21.6918 26.8377 21.4322C25.9947 21.1727 25.0906 21.1902 24.2583 21.4823C23.4259 21.7744 22.7091 22.3256 22.213 23.055M22.999 26.128V26.125C22.999 25.012 22.714 23.965 22.213 23.055M22.999 26.128V26.234C21.0749 27.3939 18.8698 28.0047 16.623 28C14.292 28 12.111 27.355 10.249 26.234L10.248 26.125C10.2473 24.7095 10.7177 23.3339 11.585 22.2153C12.4524 21.0966 13.6674 20.2984 15.0385 19.9466C16.4097 19.5948 17.8589 19.7093 19.1577 20.2721C20.4566 20.8349 21.5321 21.814 22.213 23.055M19.999 13.375C19.999 14.2701 19.6435 15.1285 19.0105 15.7615C18.3776 16.3944 17.5192 16.75 16.624 16.75C15.7289 16.75 14.8705 16.3944 14.2376 15.7615C13.6046 15.1285 13.249 14.2701 13.249 13.375C13.249 12.4799 13.6046 11.6214 14.2376 10.9885C14.8705 10.3556 15.7289 10 16.624 10C17.5192 10 18.3776 10.3556 19.0105 10.9885C19.6435 11.6214 19.999 12.4799 19.999 13.375ZM28.249 15.625C28.249 16.3212 27.9725 16.9889 27.4802 17.4812C26.9879 17.9734 26.3202 18.25 25.624 18.25C24.9279 18.25 24.2602 17.9734 23.7679 17.4812C23.2756 16.9889 22.999 16.3212 22.999 15.625C22.999 14.9288 23.2756 14.2611 23.7679 13.7688C24.2602 13.2766 24.9279 13 25.624 13C26.3202 13 26.9879 13.2766 27.4802 13.7688C27.9725 14.2611 28.249 14.9288 28.249 15.625Z" fill="#FFEDEE"/>
<path d="M22.999 26.128C23.8521 26.3754 24.7359 26.5006 25.624 26.5C27.0526 26.5034 28.4627 26.1776 29.745 25.548C29.7477 25.4907 29.749 25.433 29.749 25.375C29.7491 24.4929 29.4664 23.634 28.9424 22.9244C28.4185 22.2147 27.6808 21.6918 26.8377 21.4322C25.9947 21.1727 25.0906 21.1902 24.2583 21.4823C23.4259 21.7744 22.7091 22.3256 22.213 23.055M22.213 23.055C21.5321 21.814 20.4566 20.8349 19.1577 20.2721C17.8589 19.7093 16.4097 19.5948 15.0385 19.9466C13.6674 20.2984 12.4524 21.0966 11.585 22.2153C10.7177 23.3339 10.2473 24.7095 10.248 26.125L10.249 26.234C12.111 27.355 14.292 28 16.623 28C18.8698 28.0047 21.0749 27.3939 22.999 26.234V26.128V26.125C22.999 25.012 22.714 23.965 22.213 23.055ZM19.999 13.375C19.999 14.2701 19.6435 15.1285 19.0105 15.7615C18.3776 16.3944 17.5192 16.75 16.624 16.75C15.7289 16.75 14.8705 16.3944 14.2376 15.7615C13.6046 15.1285 13.249 14.2701 13.249 13.375C13.249 12.4799 13.6046 11.6214 14.2376 10.9885C14.8705 10.3556 15.7289 10 16.624 10C17.5192 10 18.3776 10.3556 19.0105 10.9885C19.6435 11.6214 19.999 12.4799 19.999 13.375ZM28.249 15.625C28.249 16.3212 27.9725 16.9889 27.4802 17.4812C26.9879 17.9734 26.3202 18.25 25.624 18.25C24.9279 18.25 24.2602 17.9734 23.7679 17.4812C23.2756 16.9889 22.999 16.3212 22.999 15.625C22.999 14.9288 23.2756 14.2611 23.7679 13.7688C24.2602 13.2766 24.9279 13 25.624 13C26.3202 13 26.9879 13.2766 27.4802 13.7688C27.9725 14.2611 28.249 14.9288 28.249 15.625Z" stroke="#901C27" stroke-width="1.5" stroke-linecap="round" stroke-linejoin="round"/>
</svg>
