<svg width="14" height="14" viewBox="0 0 14 14" fill="none" xmlns="http://www.w3.org/2000/svg">
<path d="M8.73692 0.641363C8.92948 0.597101 9.13105 0.6139 9.31362 0.689428C9.4962 0.764955 9.65074 0.895462 9.75577 1.06283L10.7014 2.57268C10.7776 2.69429 10.8804 2.79707 11.002 2.87332L12.5117 3.819C12.6794 3.92397 12.8102 4.07862 12.8859 4.26142C12.9616 4.44422 12.9785 4.64608 12.9341 4.83889L12.5345 6.57423C12.5023 6.71447 12.5023 6.86021 12.5345 7.00045L12.9341 8.73674C12.978 8.92927 12.961 9.13072 12.8853 9.31313C12.8096 9.49554 12.679 9.64987 12.5117 9.75472L11.002 10.7014C10.8804 10.7776 10.7776 10.8804 10.7014 11.002L9.75577 12.5119C9.65087 12.6794 9.49639 12.8101 9.3138 12.8858C9.13121 12.9615 8.92958 12.9784 8.73692 12.9343L7.00079 12.5347C6.86086 12.5026 6.71548 12.5026 6.57556 12.5347L4.83942 12.9343C4.64676 12.9784 4.44513 12.9615 4.26254 12.8858C4.07995 12.8101 3.92547 12.6794 3.82057 12.5119L2.87498 11.002C2.79846 10.8803 2.69536 10.7775 2.57341 10.7014L1.06464 9.75568C0.897119 9.65077 0.766429 9.49627 0.690734 9.31367C0.615039 9.13106 0.598097 8.92941 0.642264 8.73674L1.04086 7.00045C1.07309 6.86021 1.07309 6.71447 1.04086 6.57423L0.641313 4.83889C0.597023 4.64598 0.614001 4.44405 0.689881 4.26124C0.765761 4.07843 0.896765 3.92384 1.06464 3.819L2.57341 2.87332C2.69536 2.79718 2.79846 2.6944 2.87498 2.57268L3.82057 1.06283C3.92555 0.895643 4.07993 0.765255 4.26231 0.689738C4.44469 0.614221 4.64605 0.597315 4.83847 0.641363L6.57556 1.04C6.71548 1.07208 6.86086 1.07208 7.00079 1.04L8.73692 0.641363Z" fill="#FFEDEE" stroke="#901C27" stroke-width="1.23411"/>
<path d="M4.42383 7.29749L6.35973 9.15175L9.15181 4.42334" fill="#FFEDEE"/>
<path d="M4.42383 7.29749L6.35973 9.15175L9.15181 4.42334" stroke="#901C27" stroke-width="1.23411" stroke-linecap="round" stroke-linejoin="round"/>
</svg>
