<svg width="54" height="54" viewBox="0 0 54 54" fill="none" xmlns="http://www.w3.org/2000/svg">
<mask id="path-1-inside-1_697_3540" fill="white">
<path d="M0 9.30853C0 4.16757 4.16757 0 9.30853 0H44.6915C49.8324 0 54 4.16757 54 9.30853V44.6915C54 49.8324 49.8324 54 44.6915 54H9.30853C4.16757 54 0 49.8324 0 44.6915V9.30853Z"/>
</mask>
<path d="M0 9.30853C0 4.16757 4.16757 0 9.30853 0H44.6915C49.8324 0 54 4.16757 54 9.30853V44.6915C54 49.8324 49.8324 54 44.6915 54H9.30853C4.16757 54 0 49.8324 0 44.6915V9.30853Z" fill="white"/>
<path d="M9.30853 0V0.918605H44.6915V0V-0.918605H9.30853V0ZM54 9.30853H53.0814V44.6915H54H54.9186V9.30853H54ZM44.6915 54V53.0814H9.30853V54V54.9186H44.6915V54ZM0 44.6915H0.918605V9.30853H0H-0.918605V44.6915H0ZM9.30853 54V53.0814C4.6749 53.0814 0.918605 49.3251 0.918605 44.6915H0H-0.918605C-0.918605 50.3398 3.66024 54.9186 9.30853 54.9186V54ZM54 44.6915H53.0814C53.0814 49.3251 49.3251 53.0814 44.6915 53.0814V54V54.9186C50.3398 54.9186 54.9186 50.3398 54.9186 44.6915H54ZM44.6915 0V0.918605C49.3251 0.918605 53.0814 4.6749 53.0814 9.30853H54H54.9186C54.9186 3.66024 50.3398 -0.918605 44.6915 -0.918605V0ZM9.30853 0V-0.918605C3.66024 -0.918605 -0.918605 3.66024 -0.918605 9.30853H0H0.918605C0.918605 4.6749 4.6749 0.918605 9.30853 0.918605V0Z" fill="black" fill-opacity="0.08" mask="url(#path-1-inside-1_697_3540)"/>
<path d="M21.756 14.6332L21.5267 14.8159C21.28 15.0119 21.156 15.1092 21.0334 15.1719C20.608 15.3852 20.1 15.3572 19.7 15.0986C19.5854 15.0239 19.4734 14.9119 19.2507 14.6906C18.7174 14.1626 18.4507 13.8972 18.2494 13.7999C18.0801 13.7179 17.8953 13.6724 17.7073 13.6667C17.5192 13.6609 17.3321 13.6948 17.158 13.7663C16.984 13.8378 16.827 13.9452 16.6973 14.0815C16.5676 14.2177 16.4681 14.3799 16.4054 14.5572C16.332 14.7679 16.332 15.1412 16.332 15.8892V38.5972C16.332 38.9399 16.332 39.1106 16.348 39.2106C16.5 40.1919 17.6467 40.6639 18.4547 40.0759C18.536 40.0159 18.6587 39.8946 18.9027 39.6532C19.056 39.5012 19.1334 39.4239 19.2054 39.3652C19.5358 39.0947 19.9437 38.9363 20.37 38.9128C20.7964 38.8893 21.2192 39.002 21.5774 39.2346C21.656 39.2852 21.7414 39.3532 21.9107 39.4879L22.092 39.6319C22.3987 39.8759 22.5534 39.9972 22.7067 40.0799C23.304 40.4039 24.0267 40.4039 24.624 40.0799C24.7774 39.9972 24.9307 39.8759 25.2374 39.6319L25.332 39.5572C25.728 39.2439 25.9254 39.0866 26.1294 38.9892C26.4008 38.8593 26.6978 38.7919 26.9987 38.7919C27.2996 38.7919 27.5966 38.8593 27.868 38.9892C28.072 39.0866 28.2694 39.2426 28.6654 39.5572L28.7587 39.6319C29.0654 39.8759 29.22 39.9972 29.3734 40.0799C29.9707 40.4039 30.6934 40.4039 31.2907 40.0799C31.444 39.9972 31.5974 39.8759 31.904 39.6319L32.0867 39.4879C32.256 39.3532 32.3414 39.2852 32.42 39.2346C32.7782 39.002 33.201 38.8893 33.6274 38.9128C34.0537 38.9363 34.4616 39.0947 34.792 39.3652C34.864 39.4239 34.9414 39.4999 35.0947 39.6532C35.3387 39.8946 35.4614 40.0159 35.5427 40.0759C36.3507 40.6626 37.4987 40.1919 37.6494 39.2106C37.6654 39.1106 37.6654 38.9399 37.6654 38.5972V15.8892C37.6654 15.1412 37.6654 14.7679 37.592 14.5572C37.5293 14.3799 37.4298 14.2177 37.3001 14.0815C37.1704 13.9452 37.0134 13.8378 36.8394 13.7663C36.6653 13.6948 36.4782 13.6609 36.2901 13.6667C36.1021 13.6724 35.9173 13.7179 35.748 13.7999C35.548 13.8972 35.2814 14.1626 34.748 14.6906C34.524 14.9119 34.412 15.0239 34.296 15.0986C34.0993 15.2257 33.8729 15.2993 33.6391 15.3121C33.4053 15.325 33.1721 15.2767 32.9627 15.1719C32.8414 15.1092 32.7174 15.0119 32.4707 14.8159L32.2414 14.6332C31.6147 14.1359 31.3 13.8866 30.9574 13.7759C30.552 13.6426 30.112 13.6426 29.7067 13.7759C29.364 13.8879 29.0507 14.1359 28.4227 14.6332L28.332 14.7066C27.856 15.0852 27.6174 15.2732 27.3534 15.3466C27.1213 15.4106 26.8761 15.4106 26.644 15.3466C26.38 15.2732 26.1414 15.0852 25.6654 14.7066L25.5747 14.6346C24.948 14.1372 24.6334 13.8879 24.292 13.7772C23.885 13.643 23.4457 13.643 23.0387 13.7772C22.6974 13.8892 22.384 14.1372 21.756 14.6346M30.9987 22.9999L22.9987 30.9999L30.9987 22.9999Z" fill="#FFEDEE"/>
<path d="M21.756 14.6332L21.5267 14.8159C21.28 15.0119 21.156 15.1092 21.0334 15.1719C20.608 15.3852 20.1 15.3572 19.7 15.0986C19.5854 15.0239 19.4734 14.9119 19.2507 14.6906C18.7174 14.1626 18.4507 13.8972 18.2494 13.7999C18.0801 13.7179 17.8953 13.6724 17.7073 13.6667C17.5192 13.6609 17.3321 13.6948 17.158 13.7663C16.984 13.8378 16.827 13.9452 16.6973 14.0815C16.5676 14.2177 16.4681 14.3799 16.4054 14.5572C16.332 14.7679 16.332 15.1412 16.332 15.8892V38.5972C16.332 38.9399 16.332 39.1106 16.348 39.2106C16.5 40.1919 17.6467 40.6639 18.4547 40.0759C18.536 40.0159 18.6587 39.8946 18.9027 39.6532C19.056 39.5012 19.1334 39.4239 19.2054 39.3652C19.5358 39.0947 19.9437 38.9363 20.37 38.9128C20.7964 38.8893 21.2192 39.002 21.5774 39.2346C21.656 39.2852 21.7414 39.3532 21.9107 39.4879L22.092 39.6319C22.3987 39.8759 22.5534 39.9972 22.7067 40.0799C23.304 40.4039 24.0267 40.4039 24.624 40.0799C24.7774 39.9972 24.9307 39.8759 25.2374 39.6319L25.332 39.5572C25.728 39.2439 25.9254 39.0866 26.1294 38.9892C26.4008 38.8593 26.6978 38.7919 26.9987 38.7919C27.2996 38.7919 27.5966 38.8593 27.868 38.9892C28.072 39.0866 28.2694 39.2426 28.6654 39.5572L28.7587 39.6319C29.0654 39.8759 29.22 39.9972 29.3734 40.0799C29.9707 40.4039 30.6934 40.4039 31.2907 40.0799C31.444 39.9972 31.5974 39.8759 31.904 39.6319L32.0867 39.4879C32.256 39.3532 32.3414 39.2852 32.42 39.2346C32.7782 39.002 33.201 38.8893 33.6274 38.9128C34.0537 38.9363 34.4616 39.0947 34.792 39.3652C34.864 39.4239 34.9414 39.4999 35.0947 39.6532C35.3387 39.8946 35.4614 40.0159 35.5427 40.0759C36.3507 40.6626 37.4987 40.1919 37.6494 39.2106C37.6654 39.1106 37.6654 38.9399 37.6654 38.5972V15.8892C37.6654 15.1412 37.6654 14.7679 37.592 14.5572C37.5293 14.3799 37.4298 14.2177 37.3001 14.0815C37.1704 13.9452 37.0134 13.8378 36.8394 13.7663C36.6653 13.6948 36.4782 13.6609 36.2901 13.6667C36.1021 13.6724 35.9173 13.7179 35.748 13.7999C35.548 13.8972 35.2814 14.1626 34.748 14.6906C34.524 14.9119 34.412 15.0239 34.296 15.0986C34.0993 15.2257 33.8729 15.2993 33.6391 15.3121C33.4053 15.325 33.1721 15.2767 32.9627 15.1719C32.8414 15.1092 32.7174 15.0119 32.4707 14.8159L32.2414 14.6332C31.6147 14.1359 31.3 13.8866 30.9574 13.7759C30.552 13.6426 30.112 13.6426 29.7067 13.7759C29.364 13.8879 29.0507 14.1359 28.4227 14.6332L28.332 14.7066C27.856 15.0852 27.6174 15.2732 27.3534 15.3466C27.1213 15.4106 26.8761 15.4106 26.644 15.3466C26.38 15.2732 26.1414 15.0852 25.6654 14.7066L25.5747 14.6346C24.948 14.1372 24.6334 13.8879 24.292 13.7772C23.885 13.643 23.4457 13.643 23.0387 13.7772C22.6974 13.8892 22.384 14.1372 21.756 14.6346M30.9987 22.9999L22.9987 30.9999" stroke="#901C27" stroke-width="1.5" stroke-linecap="round" stroke-linejoin="round"/>
<path d="M23.5 23.3333H23.3333H23.5ZM23.6667 23.3333C23.6667 23.4217 23.6315 23.5065 23.569 23.569C23.5065 23.6315 23.4217 23.6667 23.3333 23.6667C23.2449 23.6667 23.1601 23.6315 23.0976 23.569C23.0351 23.5065 23 23.4217 23 23.3333C23 23.2449 23.0351 23.1601 23.0976 23.0976C23.1601 23.0351 23.2449 23 23.3333 23C23.4217 23 23.5065 23.0351 23.569 23.0976C23.6315 23.1601 23.6667 23.2449 23.6667 23.3333ZM30.8333 30.6667H30.6667H30.8333ZM31 30.6667C31 30.7551 30.9649 30.8399 30.9024 30.9024C30.8399 30.9649 30.7551 31 30.6667 31C30.5783 31 30.4935 30.9649 30.431 30.9024C30.3685 30.8399 30.3333 30.7551 30.3333 30.6667C30.3333 30.5783 30.3685 30.4935 30.431 30.431C30.4935 30.3685 30.5783 30.3333 30.6667 30.3333C30.7551 30.3333 30.8399 30.3685 30.9024 30.431C30.9649 30.4935 31 30.5783 31 30.6667Z" fill="#FFEDEE"/>
<path d="M23.5 23.3333H23.3333M30.8333 30.6667H30.6667M23.6667 23.3333C23.6667 23.4217 23.6315 23.5065 23.569 23.569C23.5065 23.6315 23.4217 23.6667 23.3333 23.6667C23.2449 23.6667 23.1601 23.6315 23.0976 23.569C23.0351 23.5065 23 23.4217 23 23.3333C23 23.2449 23.0351 23.1601 23.0976 23.0976C23.1601 23.0351 23.2449 23 23.3333 23C23.4217 23 23.5065 23.0351 23.569 23.0976C23.6315 23.1601 23.6667 23.2449 23.6667 23.3333ZM31 30.6667C31 30.7551 30.9649 30.8399 30.9024 30.9024C30.8399 30.9649 30.7551 31 30.6667 31C30.5783 31 30.4935 30.9649 30.431 30.9024C30.3685 30.8399 30.3333 30.7551 30.3333 30.6667C30.3333 30.5783 30.3685 30.4935 30.431 30.431C30.4935 30.3685 30.5783 30.3333 30.6667 30.3333C30.7551 30.3333 30.8399 30.3685 30.9024 30.431C30.9649 30.4935 31 30.5783 31 30.6667Z" stroke="#901C27" stroke-width="1.5" stroke-linecap="round" stroke-linejoin="round"/>
</svg>
