<svg width="22" height="17" viewBox="0 0 22 17" fill="none" xmlns="http://www.w3.org/2000/svg">
<path d="M17.0673 0.697266H2.92954C2.3375 0.697266 1.76971 0.932451 1.35108 1.35108C0.932451 1.76971 0.697266 2.3375 0.697266 2.92954V13.3468C0.697266 13.9388 0.932451 14.5066 1.35108 14.9253C1.76971 15.3439 2.3375 15.5791 2.92954 15.5791H17.0673C17.6593 15.5791 18.2271 15.3439 18.6457 14.9253C19.0643 14.5066 19.2995 13.9388 19.2995 13.3468V10.9285H15.5791C15.0857 10.9285 14.6126 10.7325 14.2637 10.3837C13.9148 10.0348 13.7188 9.56165 13.7188 9.06828V7.20806C13.7188 6.71469 13.9148 6.24154 14.2637 5.89268C14.6126 5.54382 15.0857 5.34783 15.5791 5.34783H19.2995V2.92954C19.2995 2.3375 19.0643 1.76971 18.6457 1.35108C18.2271 0.932451 17.6593 0.697266 17.0673 0.697266Z" fill="#FFEDEE"/>
<path d="M19.2995 5.34783V2.92954C19.2995 1.69714 18.481 0.697266 17.4728 0.697266H2.52401C1.51483 0.697266 0.697266 1.69714 0.697266 2.92954V13.3468C0.697266 14.5792 1.51577 15.5791 2.52401 15.5791H17.4728C18.482 15.5791 19.2995 14.5792 19.2995 13.3468V10.9285M18.3694 8.13817H18.3787M15.207 5.34783H19.6716C20.0663 5.34783 20.4448 5.50462 20.7239 5.78371C21.003 6.0628 21.1598 6.44132 21.1598 6.83601V9.44033C21.1598 9.83502 21.003 10.2135 20.7239 10.4926C20.4448 10.7717 20.0663 10.9285 19.6716 10.9285H15.207C14.8123 10.9285 14.4338 10.7717 14.1547 10.4926C13.8756 10.2135 13.7188 9.83502 13.7188 9.44033V6.83601C13.7188 6.44132 13.8756 6.0628 14.1547 5.78371C14.4338 5.50462 14.8123 5.34783 15.207 5.34783Z" stroke="#901C27" stroke-width="1.39517" stroke-linecap="round" stroke-linejoin="round"/>
</svg>
