<svg width="20" height="20" viewBox="0 0 20 20" fill="none" xmlns="http://www.w3.org/2000/svg">
<g clip-path="url(#clip0_583_12995)">
<path d="M1.42458 16.6439C1.51125 17.7068 2.33667 18.5064 3.40042 18.5802C4.625 18.6652 6.51542 18.7502 9.16667 18.7502C11.8179 18.7502 13.7083 18.6652 14.9329 18.5802C15.9967 18.5068 16.8221 17.7068 16.9088 16.6439C16.9983 15.546 17.0833 13.9114 17.0833 11.6668C17.0833 9.42225 16.9983 7.78766 16.9088 6.68975C16.8221 5.62683 15.9967 4.82725 14.9329 4.7535C13.7079 4.6685 11.8179 4.5835 9.16667 4.5835C6.51542 4.5835 4.625 4.6685 3.4 4.7535C2.33667 4.82683 1.51125 5.62683 1.42458 6.68975C1.335 7.78725 1.25 9.42225 1.25 11.6668C1.25 13.9114 1.335 15.546 1.42458 16.6439Z" fill="#FFEDEE"/>
<path d="M2.98242 4.82155C5.47617 3.52072 8.66159 2.31947 11.6316 1.58822C12.4953 1.37572 13.3878 1.69572 13.837 2.46322C14.1591 3.01322 14.5524 3.76822 14.9678 4.75572L14.932 4.75322C13.707 4.66822 11.817 4.58322 9.16534 4.58322C6.51451 4.58322 4.62409 4.66822 3.39951 4.75322C3.25878 4.76288 3.11886 4.78576 2.98242 4.82155ZM12.1091 12.9678C12.1487 13.8553 12.8328 14.5166 13.7199 14.552C14.172 14.5703 14.7341 14.5832 15.4158 14.5832C16.0974 14.5832 16.6595 14.5703 17.1116 14.552C17.9991 14.5166 18.6828 13.8553 18.7224 12.9678C18.7383 12.6066 18.7491 12.1745 18.7491 11.6666C18.7491 11.1586 18.7383 10.7266 18.7224 10.3653C18.6828 9.4778 17.9987 8.81655 17.1116 8.78113C16.5466 8.75944 15.9812 8.74902 15.4158 8.74988C14.7341 8.74988 14.172 8.7628 13.7199 8.78113C12.8324 8.81655 12.1487 9.4778 12.1091 10.3653C12.0907 10.7988 12.0818 11.2327 12.0824 11.6666C12.0824 12.1749 12.0933 12.6066 12.1091 12.9678Z" fill="white"/>
<path d="M3.0293 4.79785C5.51638 3.50618 8.68096 2.31451 11.6335 1.58826C12.4972 1.37576 13.3897 1.69535 13.8389 2.46285C14.1597 3.01118 14.5514 3.76285 14.9655 4.74535M12.1105 12.9678C12.1501 13.8553 12.8343 14.5166 13.7214 14.552C14.1735 14.5703 14.7355 14.5833 15.4172 14.5833C16.0989 14.5833 16.661 14.5703 17.113 14.552C18.0005 14.5166 18.6843 13.8553 18.7239 12.9678C18.7397 12.6066 18.7505 12.1745 18.7505 11.6666C18.7505 11.1587 18.7397 10.7266 18.7239 10.3653C18.6843 9.47785 18.0001 8.8166 17.113 8.78118C16.548 8.75948 15.9826 8.74906 15.4172 8.74993C14.7355 8.74993 14.1735 8.76285 13.7214 8.78118C12.8339 8.8166 12.1501 9.47785 12.1105 10.3653C12.0921 10.7988 12.0832 11.2327 12.0839 11.6666C12.0839 12.1749 12.0947 12.6066 12.1105 12.9678Z" stroke="#901C27" stroke-width="1.5" stroke-linecap="round" stroke-linejoin="round"/>
<path d="M17.0308 8.77808C17.0048 8.08119 16.9641 7.38492 16.9088 6.68975C16.8221 5.62683 15.9967 4.82725 14.9329 4.7535C13.7079 4.6685 11.8179 4.5835 9.16667 4.5835C6.51542 4.5835 4.625 4.6685 3.4 4.7535C2.33667 4.82683 1.51125 5.62683 1.42458 6.68975C1.335 7.78725 1.25 9.42225 1.25 11.6668C1.25 13.9114 1.335 15.546 1.42458 16.6439C1.51125 17.7068 2.33667 18.5064 3.40042 18.5802C4.625 18.6652 6.51542 18.7502 9.16667 18.7502C11.8179 18.7502 13.7083 18.6652 14.9329 18.5802C15.9967 18.5068 16.8221 17.7068 16.9088 16.6439C16.9542 16.0885 16.9983 15.3956 17.0308 14.5556M15 11.2502V12.0835" stroke="#901C27" stroke-width="1.5" stroke-linecap="round" stroke-linejoin="round"/>
</g>
<defs>
<clipPath id="clip0_583_12995">
<rect width="20" height="20" fill="white"/>
</clipPath>
</defs>
</svg>
